<?xml version="1.0" encoding="UTF-8"?>
<svg xmlns="http://www.w3.org/2000/svg" xmlns:xlink="http://www.w3.org/1999/xlink" width="219px" height="35px" viewBox="0 0 219 35" version="1.1">
<defs>
<linearGradient id="linear0" gradientUnits="userSpaceOnUse" x1="165.8852" y1="462.9906" x2="485.6481" y2="137.3783" gradientTransform="matrix(0.0759099,0,0,0.076087,0,0.0076087)">
<stop offset="0" style="stop-color:rgb(36.470588%,27.843137%,100%);stop-opacity:1;"/>
<stop offset="0.5903" style="stop-color:rgb(51.764706%,42.745098%,100%);stop-opacity:1;"/>
<stop offset="1" style="stop-color:rgb(63.921569%,42.352941%,100%);stop-opacity:1;"/>
</linearGradient>
<linearGradient id="linear1" gradientUnits="userSpaceOnUse" x1="223.462" y1="397.5707" x2="494.665" y2="132.4621" gradientTransform="matrix(0.0759099,0,0,0.076087,0,0.0076087)">
<stop offset="0" style="stop-color:rgb(36.470588%,27.843137%,100%);stop-opacity:1;"/>
<stop offset="0.5903" style="stop-color:rgb(51.764706%,42.745098%,100%);stop-opacity:1;"/>
<stop offset="1" style="stop-color:rgb(63.921569%,42.352941%,100%);stop-opacity:1;"/>
</linearGradient>
<linearGradient id="linear2" gradientUnits="userSpaceOnUse" x1="-2.189" y1="297.9356" x2="317.5739" y2="-27.6766" gradientTransform="matrix(0.0759099,0,0,0.076087,0,0.0076087)">
<stop offset="0" style="stop-color:rgb(36.470588%,27.843137%,100%);stop-opacity:1;"/>
<stop offset="0.5903" style="stop-color:rgb(51.764706%,42.745098%,100%);stop-opacity:1;"/>
<stop offset="1" style="stop-color:rgb(63.921569%,42.352941%,100%);stop-opacity:1;"/>
</linearGradient>
<linearGradient id="linear3" gradientUnits="userSpaceOnUse" x1="-143.128" y1="382.6513" x2="417.5614" y2="-102.8732" gradientTransform="matrix(0.0759099,0,0,0.076087,0,0.0076087)">
<stop offset="0" style="stop-color:rgb(36.470588%,27.843137%,100%);stop-opacity:1;"/>
<stop offset="0.5903" style="stop-color:rgb(51.764706%,42.745098%,100%);stop-opacity:1;"/>
<stop offset="1" style="stop-color:rgb(63.921569%,42.352941%,100%);stop-opacity:1;"/>
</linearGradient>
<linearGradient id="linear4" gradientUnits="userSpaceOnUse" x1="413.414" y1="50.1758" x2="76.1878" y2="391.465" gradientTransform="matrix(0.0759099,0,0,0.076087,0,0.0076087)">
<stop offset="0" style="stop-color:rgb(36.470588%,27.843137%,100%);stop-opacity:1;"/>
<stop offset="0.5903" style="stop-color:rgb(51.764706%,42.745098%,100%);stop-opacity:1;"/>
<stop offset="1" style="stop-color:rgb(63.921569%,42.352941%,100%);stop-opacity:1;"/>
</linearGradient>
<linearGradient id="linear5" gradientUnits="userSpaceOnUse" x1="126.4404" y1="210.0633" x2="176.185" y2="210.0633" gradientTransform="matrix(0.0759099,0,0,0.076087,0,0.0076087)">
<stop offset="0" style="stop-color:rgb(36.470588%,27.843137%,100%);stop-opacity:1;"/>
<stop offset="0.5903" style="stop-color:rgb(51.764706%,42.745098%,100%);stop-opacity:1;"/>
<stop offset="1" style="stop-color:rgb(63.921569%,42.352941%,100%);stop-opacity:1;"/>
</linearGradient>
<linearGradient id="linear6" gradientUnits="userSpaceOnUse" x1="-554.7342" y1="2948.1753" x2="4.5684" y2="1197.3152" gradientTransform="matrix(0.0759099,0,0,0.076087,0,0.0076087)">
<stop offset="0" style="stop-color:rgb(36.470588%,27.843137%,100%);stop-opacity:1;"/>
<stop offset="0.5903" style="stop-color:rgb(51.764706%,42.745098%,100%);stop-opacity:1;"/>
<stop offset="1" style="stop-color:rgb(63.921569%,42.352941%,100%);stop-opacity:1;"/>
</linearGradient>
<linearGradient id="linear7" gradientUnits="userSpaceOnUse" x1="-562.4715" y1="2945.7039" x2="-3.1689" y2="1194.8435" gradientTransform="matrix(0.0759099,0,0,0.076087,0,0.0076087)">
<stop offset="0" style="stop-color:rgb(36.470588%,27.843137%,100%);stop-opacity:1;"/>
<stop offset="0.5903" style="stop-color:rgb(51.764706%,42.745098%,100%);stop-opacity:1;"/>
<stop offset="1" style="stop-color:rgb(63.921569%,42.352941%,100%);stop-opacity:1;"/>
</linearGradient>
<linearGradient id="linear8" gradientUnits="userSpaceOnUse" x1="313.9312" y1="99.0121" x2="433.147" y2="99.0121" gradientTransform="matrix(0.0759099,0,0,0.076087,0,0.0076087)">
<stop offset="0" style="stop-color:rgb(36.470588%,27.843137%,100%);stop-opacity:1;"/>
<stop offset="0.5903" style="stop-color:rgb(51.764706%,42.745098%,100%);stop-opacity:1;"/>
<stop offset="1" style="stop-color:rgb(63.921569%,42.352941%,100%);stop-opacity:1;"/>
</linearGradient>
<linearGradient id="linear9" gradientUnits="userSpaceOnUse" x1="683.3865" y1="569.4691" x2="683.3865" y2="97.3262" gradientTransform="matrix(0.0759099,0,0,0.076087,0,0.0076087)">
<stop offset="0" style="stop-color:rgb(36.470588%,27.843137%,100%);stop-opacity:1;"/>
<stop offset="0.5903" style="stop-color:rgb(51.764706%,42.745098%,100%);stop-opacity:1;"/>
<stop offset="1" style="stop-color:rgb(63.921569%,42.352941%,100%);stop-opacity:1;"/>
</linearGradient>
<linearGradient id="linear10" gradientUnits="userSpaceOnUse" x1="900.4113" y1="514.9131" x2="900.4113" y2="154.4032" gradientTransform="matrix(0.0759099,0,0,0.076087,0,0.0076087)">
<stop offset="0" style="stop-color:rgb(36.470588%,27.843137%,100%);stop-opacity:1;"/>
<stop offset="0.5903" style="stop-color:rgb(51.764706%,42.745098%,100%);stop-opacity:1;"/>
<stop offset="1" style="stop-color:rgb(63.921569%,42.352941%,100%);stop-opacity:1;"/>
</linearGradient>
<linearGradient id="linear11" gradientUnits="userSpaceOnUse" x1="1083.1206" y1="514.5925" x2="1083.1206" y2="154.7386" gradientTransform="matrix(0.0759099,0,0,0.076087,0,0.0076087)">
<stop offset="0" style="stop-color:rgb(36.470588%,27.843137%,100%);stop-opacity:1;"/>
<stop offset="0.5903" style="stop-color:rgb(51.764706%,42.745098%,100%);stop-opacity:1;"/>
<stop offset="1" style="stop-color:rgb(63.921569%,42.352941%,100%);stop-opacity:1;"/>
</linearGradient>
<linearGradient id="linear12" gradientUnits="userSpaceOnUse" x1="1271.4451" y1="573.002" x2="1271.4451" y2="87.0701" gradientTransform="matrix(0.0759099,0,0,0.076087,0,0.0076087)">
<stop offset="0" style="stop-color:rgb(36.470588%,27.843137%,100%);stop-opacity:1;"/>
<stop offset="0.5903" style="stop-color:rgb(51.764706%,42.745098%,100%);stop-opacity:1;"/>
<stop offset="1" style="stop-color:rgb(63.921569%,42.352941%,100%);stop-opacity:1;"/>
</linearGradient>
<linearGradient id="linear13" gradientUnits="userSpaceOnUse" x1="1448.7148" y1="514.5925" x2="1448.7148" y2="154.7386" gradientTransform="matrix(0.0759099,0,0,0.076087,0,0.0076087)">
<stop offset="0" style="stop-color:rgb(36.470588%,27.843137%,100%);stop-opacity:1;"/>
<stop offset="0.5903" style="stop-color:rgb(51.764706%,42.745098%,100%);stop-opacity:1;"/>
<stop offset="1" style="stop-color:rgb(63.921569%,42.352941%,100%);stop-opacity:1;"/>
</linearGradient>
</defs>
<g id="surface1">
<path style=" stroke:none;fill-rule:nonzero;fill:url(#linear0);" d="M 33.210938 12.699219 L 31.304688 10.789062 C 30.007812 11.847656 27.769531 12.738281 26.355469 13.199219 C 26.296875 13.222656 26.234375 13.246094 26.167969 13.269531 C 25.792969 13.636719 25.429688 14.023438 25.089844 14.433594 L 27.867188 17.21875 L 33.066406 22.429688 L 33.210938 22.285156 C 35.859375 19.644531 35.859375 15.347656 33.210938 12.699219 Z M 33.210938 12.699219 "/>
<path style=" stroke:none;fill-rule:nonzero;fill:url(#linear1);" d="M 33.210938 12.699219 L 31.304688 10.789062 C 30.007812 11.847656 27.769531 12.738281 26.355469 13.199219 C 26.296875 13.222656 26.234375 13.246094 26.167969 13.269531 C 25.792969 13.636719 25.429688 14.023438 25.089844 14.433594 L 27.867188 17.21875 L 33.066406 22.429688 L 33.210938 22.285156 C 35.859375 19.644531 35.859375 15.347656 33.210938 12.699219 Z M 33.210938 12.699219 "/>
<path style=" stroke:none;fill-rule:nonzero;fill:url(#linear2);" d="M 7.941406 17.226562 L 13.351562 11.800781 C 13.496094 11.414062 13.648438 11.023438 13.816406 10.636719 C 15.449219 6.96875 19.105469 5.730469 22.558594 5.667969 C 23.015625 4.863281 23.875 4.320312 24.835938 4.3125 L 22.691406 2.160156 C 20.046875 -0.488281 15.757812 -0.488281 13.117188 2.160156 L 12.972656 2.304688 L 2.742188 12.5625 L 7.941406 17.773438 C 7.789062 17.621094 7.789062 17.378906 7.941406 17.226562 Z M 7.941406 17.226562 "/>
<path style=" stroke:none;fill-rule:nonzero;fill:url(#linear3);" d="M 7.941406 17.226562 L 13.351562 11.800781 C 13.496094 11.414062 13.648438 11.023438 13.816406 10.636719 C 15.449219 6.96875 19.105469 5.730469 22.558594 5.667969 C 23.015625 4.863281 23.875 4.320312 24.835938 4.3125 L 22.691406 2.160156 C 20.046875 -0.488281 15.757812 -0.488281 13.117188 2.160156 L 12.972656 2.304688 L 2.742188 12.5625 L 7.941406 17.773438 C 7.789062 17.621094 7.789062 17.378906 7.941406 17.226562 Z M 7.941406 17.226562 "/>
<path style=" stroke:none;fill-rule:nonzero;fill:url(#linear4);" d="M 27.875 17.226562 C 28.027344 17.378906 28.027344 17.621094 27.875 17.773438 L 23.085938 22.574219 L 21.90625 23.753906 L 18.71875 26.949219 L 18.179688 27.488281 C 18.027344 27.640625 17.785156 27.640625 17.632812 27.488281 L 12.789062 22.636719 L 9.601562 19.441406 L 7.941406 17.773438 L 2.742188 12.5625 L 2.597656 12.707031 C -0.046875 15.355469 -0.046875 19.652344 2.597656 22.300781 L 3.796875 23.496094 L 12.835938 32.558594 L 13.117188 32.839844 C 15.757812 35.488281 20.046875 35.488281 22.691406 32.839844 L 22.832031 32.695312 L 33.074219 22.429688 Z M 27.875 17.226562 "/>
<path style=" stroke:none;fill-rule:nonzero;fill:rgb(11.764706%,11.764706%,11.764706%);fill-opacity:1;" d="M 26.644531 6.117188 C 26.453125 5.699219 26.121094 5.347656 25.679688 5.152344 C 25.664062 5.144531 25.65625 5.136719 25.640625 5.128906 C 25.582031 5.105469 25.519531 5.082031 25.46875 5.058594 C 25.5 5.273438 25.476562 5.492188 25.390625 5.699219 C 25.367188 5.753906 25.339844 5.796875 25.308594 5.851562 C 25.011719 6.339844 24.398438 6.542969 23.867188 6.316406 C 23.617188 6.207031 23.417969 6.019531 23.296875 5.789062 C 23.222656 5.90625 23.144531 6.027344 23.089844 6.15625 C 22.667969 7.144531 23.128906 8.292969 24.117188 8.71875 C 25.101562 9.144531 26.25 8.679688 26.675781 7.691406 C 26.886719 7.167969 26.863281 6.597656 26.644531 6.117188 Z M 26.644531 6.117188 "/>
<path style=" stroke:none;fill-rule:nonzero;fill:url(#linear5);" d="M 13.375 11.738281 C 13.367188 11.753906 13.359375 11.777344 13.351562 11.792969 C 12.351562 17.113281 11.847656 17.859375 9.59375 19.433594 L 10.398438 20.238281 C 10.921875 19.722656 11.675781 18.824219 12.386719 17.445312 C 13.261719 15.75 13.382812 13.195312 13.375 11.738281 Z M 13.375 11.738281 "/>
<path style=" stroke:none;fill-rule:nonzero;fill:url(#linear6);" d="M 24.792969 14.070312 C 24.777344 14.082031 24.761719 14.089844 24.746094 14.105469 C 24.246094 14.511719 23.773438 15.027344 23.359375 15.644531 C 22.121094 17.5 21.40625 20.269531 21.898438 23.753906 L 23.789062 21.898438 C 23.707031 21.625 23.628906 21.335938 23.5625 21.039062 C 22.910156 18.277344 23.394531 16.457031 25.089844 14.441406 C 25.300781 14.191406 25.785156 13.6875 26.21875 13.253906 C 26.203125 13.261719 26.1875 13.269531 26.171875 13.269531 C 25.703125 13.453125 25.234375 13.71875 24.792969 14.070312 Z M 24.792969 14.070312 "/>
<path style=" stroke:none;fill-rule:nonzero;fill:rgb(100%,100%,100%);fill-opacity:1;" d="M 23.363281 15.644531 C 22.128906 17.5 21.414062 20.269531 21.898438 23.753906 C 21.414062 20.261719 22.128906 17.5 23.363281 15.644531 Z M 23.363281 15.644531 "/>
<path style=" stroke:none;fill-rule:nonzero;fill:url(#linear7);" d="M 23.363281 15.644531 C 22.128906 17.5 21.414062 20.269531 21.898438 23.753906 C 21.414062 20.261719 22.128906 17.5 23.363281 15.644531 Z M 23.363281 15.644531 "/>
<path style=" stroke:none;fill-rule:nonzero;fill:url(#linear8);" d="M 32.625 8.164062 C 31.519531 6.597656 28.15625 5.875 28.15625 5.875 C 28.15625 5.875 27.699219 4.601562 26.515625 4.207031 C 25.445312 3.851562 23.835938 4.488281 23.835938 4.488281 L 23.859375 4.511719 C 24.164062 4.382812 24.496094 4.3125 24.84375 4.304688 C 24.929688 4.304688 25.011719 4.304688 25.097656 4.3125 C 26.257812 4.40625 27.175781 5.234375 27.449219 6.308594 C 33.089844 7.707031 33.027344 9.398438 31.3125 10.796875 C 31.246094 10.851562 31.175781 10.902344 31.101562 10.957031 L 31.128906 10.988281 C 31.128906 10.980469 33.679688 9.671875 32.625 8.164062 Z M 32.625 8.164062 "/>
<path style=" stroke:none;fill-rule:nonzero;fill:rgb(100%,100%,100%);fill-opacity:1;" d="M 27.441406 6.308594 C 27.167969 5.242188 26.242188 4.414062 25.089844 4.3125 C 25.003906 4.304688 24.921875 4.304688 24.835938 4.304688 C 24.488281 4.3125 24.15625 4.382812 23.851562 4.511719 C 23.304688 4.738281 22.847656 5.144531 22.558594 5.660156 C 19.113281 5.722656 15.449219 6.960938 13.816406 10.628906 C 13.65625 10.996094 13.503906 11.367188 13.367188 11.738281 C 13.375 13.195312 13.253906 15.75 12.382812 17.445312 C 11.667969 18.832031 10.914062 19.722656 10.390625 20.238281 L 12.777344 22.628906 L 17.617188 27.484375 C 17.769531 27.636719 18.011719 27.636719 18.164062 27.484375 L 18.703125 26.941406 L 21.890625 23.746094 C 21.398438 20.253906 22.113281 17.484375 23.359375 15.636719 C 23.765625 15.019531 24.246094 14.503906 24.746094 14.089844 C 24.761719 14.082031 24.777344 14.070312 24.785156 14.0625 C 25.226562 13.710938 25.6875 13.445312 26.160156 13.261719 C 26.171875 13.253906 26.1875 13.246094 26.203125 13.246094 C 26.25 13.230469 26.296875 13.207031 26.339844 13.195312 C 27.675781 12.753906 29.765625 11.929688 31.078125 10.949219 C 31.144531 10.894531 31.222656 10.84375 31.289062 10.789062 C 33.019531 9.398438 33.089844 7.707031 27.441406 6.308594 Z M 26.667969 7.691406 C 26.242188 8.679688 25.101562 9.144531 24.109375 8.71875 C 23.121094 8.292969 22.660156 7.152344 23.085938 6.15625 C 23.136719 6.027344 23.207031 5.90625 23.289062 5.789062 C 23.410156 6.019531 23.609375 6.207031 23.859375 6.316406 C 24.398438 6.542969 25.003906 6.339844 25.300781 5.851562 C 25.308594 5.835938 25.316406 5.828125 25.324219 5.8125 C 25.347656 5.773438 25.367188 5.738281 25.382812 5.699219 C 25.476562 5.484375 25.5 5.265625 25.460938 5.058594 C 25.519531 5.082031 25.582031 5.097656 25.636719 5.128906 C 25.648438 5.136719 25.65625 5.144531 25.671875 5.152344 C 26.113281 5.355469 26.445312 5.707031 26.636719 6.117188 C 26.78125 6.429688 26.835938 6.785156 26.796875 7.136719 C 26.789062 7.328125 26.742188 7.511719 26.667969 7.691406 Z M 26.667969 7.691406 "/>
<path style=" stroke:none;fill-rule:nonzero;fill:url(#linear9);" d="M 60.136719 17.082031 C 60.121094 16.859375 60.097656 16.664062 60.058594 16.480469 L 52.347656 16.480469 L 52.347656 19.3125 L 56.949219 19.3125 L 56.949219 19.332031 C 56.949219 19.820312 56.839844 20.277344 56.621094 20.703125 C 56.402344 21.128906 56.089844 21.496094 55.6875 21.8125 C 55.285156 22.132812 54.820312 22.378906 54.296875 22.558594 C 53.78125 22.742188 53.21875 22.824219 52.621094 22.824219 C 51.824219 22.824219 51.070312 22.675781 50.375 22.378906 C 49.667969 22.074219 49.046875 21.65625 48.515625 21.121094 C 47.976562 20.582031 47.558594 19.957031 47.261719 19.242188 C 46.957031 18.527344 46.8125 17.773438 46.8125 16.976562 C 46.8125 16.144531 46.957031 15.386719 47.253906 14.683594 C 47.542969 13.984375 47.945312 13.375 48.460938 12.859375 C 48.96875 12.339844 49.570312 11.929688 50.261719 11.640625 C 50.949219 11.351562 51.703125 11.199219 52.507812 11.199219 C 53.0625 11.199219 53.59375 11.285156 54.117188 11.445312 C 54.632812 11.601562 55.132812 11.832031 55.613281 12.128906 C 56.089844 12.417969 56.554688 12.789062 57.007812 13.222656 L 59.003906 11.125 C 58.566406 10.570312 58.019531 10.074219 57.351562 9.632812 C 56.683594 9.191406 55.9375 8.847656 55.109375 8.605469 C 54.28125 8.363281 53.425781 8.238281 52.53125 8.238281 C 51.261719 8.238281 50.085938 8.460938 48.992188 8.902344 C 47.898438 9.34375 46.941406 9.953125 46.128906 10.742188 C 45.316406 11.535156 44.6875 12.457031 44.246094 13.519531 C 43.800781 14.585938 43.578125 15.734375 43.578125 16.976562 C 43.578125 18.230469 43.800781 19.386719 44.242188 20.453125 C 44.679688 21.515625 45.296875 22.445312 46.101562 23.246094 C 46.90625 24.042969 47.847656 24.660156 48.929688 25.109375 C 50.015625 25.558594 51.203125 25.777344 52.484375 25.777344 C 53.570312 25.777344 54.578125 25.59375 55.511719 25.230469 C 56.445312 24.863281 57.265625 24.347656 57.972656 23.679688 C 58.679688 23.007812 59.226562 22.21875 59.613281 21.296875 C 60 20.375 60.195312 19.355469 60.195312 18.238281 C 60.195312 18.09375 60.1875 17.917969 60.179688 17.714844 C 60.167969 17.515625 60.152344 17.300781 60.136719 17.082031 Z M 60.136719 17.082031 "/>
<path style=" stroke:none;fill-rule:nonzero;fill:url(#linear10);" d="M 72.933594 14.207031 C 72.402344 13.640625 71.765625 13.199219 71.035156 12.875 C 70.308594 12.546875 69.519531 12.386719 68.675781 12.386719 C 67.71875 12.386719 66.839844 12.554688 66.035156 12.890625 C 65.230469 13.222656 64.539062 13.695312 63.96875 14.304688 C 63.390625 14.914062 62.945312 15.636719 62.617188 16.464844 C 62.292969 17.292969 62.132812 18.214844 62.132812 19.21875 C 62.132812 20.488281 62.421875 21.617188 62.996094 22.597656 C 63.574219 23.578125 64.378906 24.355469 65.402344 24.925781 C 66.4375 25.496094 67.621094 25.777344 68.972656 25.777344 C 69.570312 25.777344 70.179688 25.695312 70.792969 25.535156 C 71.410156 25.375 72 25.148438 72.554688 24.863281 C 73.117188 24.582031 73.609375 24.234375 74.050781 23.832031 L 72.570312 21.753906 C 71.984375 22.253906 71.4375 22.605469 70.9375 22.804688 C 70.4375 23 69.882812 23.09375 69.28125 23.09375 C 68.425781 23.09375 67.671875 22.925781 67.035156 22.589844 C 66.398438 22.253906 65.898438 21.785156 65.546875 21.160156 C 65.3125 20.742188 65.160156 20.277344 65.085938 19.765625 L 74.542969 19.765625 L 74.566406 18.71875 C 74.582031 17.804688 74.445312 16.96875 74.164062 16.191406 C 73.882812 15.4375 73.472656 14.769531 72.933594 14.207031 Z M 66.671875 15.515625 C 67.21875 15.203125 67.886719 15.050781 68.675781 15.050781 C 69.191406 15.050781 69.671875 15.15625 70.09375 15.378906 C 70.527344 15.597656 70.878906 15.894531 71.148438 16.28125 C 71.421875 16.664062 71.589844 17.105469 71.636719 17.613281 L 71.636719 17.734375 L 65.136719 17.734375 C 65.207031 17.410156 65.304688 17.113281 65.425781 16.84375 C 65.714844 16.265625 66.125 15.820312 66.671875 15.515625 Z M 66.671875 15.515625 "/>
<path style=" stroke:none;fill-rule:nonzero;fill:url(#linear11);" d="M 81.101562 15.597656 C 81.664062 15.246094 82.300781 15.074219 83.015625 15.074219 C 83.441406 15.074219 83.859375 15.15625 84.28125 15.316406 C 84.707031 15.476562 85.101562 15.695312 85.472656 15.976562 C 85.847656 16.253906 86.15625 16.5625 86.402344 16.90625 L 88.054688 14.90625 C 87.539062 14.121094 86.804688 13.511719 85.871094 13.078125 C 84.929688 12.636719 83.878906 12.417969 82.726562 12.417969 C 81.527344 12.417969 80.449219 12.707031 79.492188 13.292969 C 78.535156 13.878906 77.777344 14.675781 77.230469 15.679688 C 76.675781 16.695312 76.402344 17.828125 76.402344 19.097656 C 76.402344 20.367188 76.675781 21.503906 77.230469 22.515625 C 77.785156 23.527344 78.535156 24.316406 79.492188 24.902344 C 80.449219 25.488281 81.527344 25.777344 82.726562 25.777344 C 83.796875 25.777344 84.8125 25.558594 85.777344 25.109375 C 86.742188 24.660156 87.5 24.082031 88.054688 23.367188 L 86.402344 21.34375 C 86.089844 21.730469 85.761719 22.058594 85.40625 22.316406 C 85.050781 22.574219 84.667969 22.773438 84.273438 22.917969 C 83.878906 23.054688 83.46875 23.121094 83.046875 23.121094 C 82.347656 23.121094 81.71875 22.949219 81.148438 22.582031 C 80.578125 22.226562 80.128906 21.746094 79.796875 21.144531 C 79.460938 20.542969 79.296875 19.859375 79.296875 19.097656 C 79.296875 18.335938 79.453125 17.644531 79.78125 17.035156 C 80.101562 16.425781 80.539062 15.949219 81.101562 15.597656 Z M 81.101562 15.597656 "/>
<path style=" stroke:none;fill-rule:nonzero;fill:url(#linear12);" d="M 102.621094 12.683594 L 98.628906 12.683594 L 93.332031 18.023438 L 93.332031 7.488281 L 90.332031 7.488281 L 90.332031 25.535156 L 93.332031 25.535156 L 93.332031 21.425781 L 94.613281 20.214844 L 98.992188 25.535156 L 102.699219 25.535156 L 96.648438 18.304688 Z M 102.621094 12.683594 "/>
<path style=" stroke:none;fill-rule:nonzero;fill:url(#linear13);" d="M 115.777344 15.660156 C 115.199219 14.65625 114.410156 13.855469 113.402344 13.277344 C 112.390625 12.699219 111.261719 12.410156 109.992188 12.410156 C 108.710938 12.410156 107.5625 12.699219 106.5625 13.277344 C 105.550781 13.855469 104.761719 14.648438 104.179688 15.660156 C 103.59375 16.671875 103.304688 17.8125 103.304688 19.097656 C 103.304688 20.382812 103.59375 21.53125 104.179688 22.535156 C 104.761719 23.550781 105.558594 24.339844 106.5625 24.917969 C 107.570312 25.496094 108.710938 25.785156 109.992188 25.785156 C 111.261719 25.785156 112.390625 25.496094 113.402344 24.917969 C 114.402344 24.339844 115.199219 23.550781 115.777344 22.535156 C 116.355469 21.53125 116.644531 20.382812 116.644531 19.097656 C 116.636719 17.8125 116.355469 16.664062 115.777344 15.660156 Z M 113.144531 21.144531 C 112.824219 21.746094 112.398438 22.226562 111.851562 22.582031 C 111.308594 22.941406 110.691406 23.121094 109.992188 23.121094 C 109.296875 23.121094 108.664062 22.949219 108.109375 22.582031 C 107.550781 22.226562 107.117188 21.746094 106.8125 21.144531 C 106.5 20.542969 106.351562 19.859375 106.351562 19.097656 C 106.351562 18.335938 106.5 17.644531 106.8125 17.035156 C 107.125 16.425781 107.558594 15.949219 108.109375 15.597656 C 108.671875 15.246094 109.300781 15.074219 109.992188 15.074219 C 110.691406 15.074219 111.3125 15.246094 111.851562 15.597656 C 112.398438 15.949219 112.824219 16.417969 113.144531 17.027344 C 113.460938 17.628906 113.605469 18.320312 113.589844 19.097656 C 113.613281 19.859375 113.460938 20.542969 113.144531 21.144531 Z M 113.144531 21.144531 "/>
<path style=" stroke:none;fill-rule:nonzero;fill:rgb(100%,100%,100%);fill-opacity:1;" d="M 122.148438 25.542969 L 122.148438 11.421875 L 117.289062 11.421875 L 117.289062 8.5 L 130.308594 8.5 L 130.308594 11.421875 L 125.304688 11.421875 L 125.304688 25.542969 Z M 122.148438 25.542969 "/>
<path style=" stroke:none;fill-rule:nonzero;fill:rgb(100%,100%,100%);fill-opacity:1;" d="M 136.457031 25.785156 C 135.113281 25.785156 133.929688 25.503906 132.894531 24.933594 C 131.863281 24.363281 131.066406 23.585938 130.488281 22.605469 C 129.914062 21.625 129.625 20.496094 129.625 19.234375 C 129.625 18.230469 129.78125 17.308594 130.109375 16.480469 C 130.4375 15.652344 130.882812 14.9375 131.460938 14.328125 C 132.039062 13.71875 132.722656 13.246094 133.527344 12.910156 C 134.332031 12.578125 135.203125 12.410156 136.160156 12.410156 C 137.003906 12.410156 137.785156 12.570312 138.511719 12.898438 C 139.242188 13.222656 139.871094 13.664062 140.410156 14.21875 C 140.941406 14.785156 141.351562 15.445312 141.640625 16.214844 C 141.921875 16.984375 142.058594 17.828125 142.042969 18.734375 L 142.019531 19.78125 L 131.644531 19.78125 L 131.082031 17.734375 L 139.523438 17.734375 L 139.136719 18.148438 L 139.136719 17.613281 C 139.089844 17.113281 138.921875 16.671875 138.648438 16.289062 C 138.375 15.910156 138.019531 15.605469 137.59375 15.390625 C 137.160156 15.171875 136.691406 15.066406 136.175781 15.066406 C 135.378906 15.066406 134.710938 15.21875 134.171875 15.53125 C 133.625 15.839844 133.222656 16.28125 132.941406 16.851562 C 132.667969 17.429688 132.53125 18.148438 132.53125 19.007812 C 132.53125 19.835938 132.707031 20.558594 133.054688 21.175781 C 133.402344 21.792969 133.898438 22.269531 134.535156 22.597656 C 135.171875 22.933594 135.925781 23.101562 136.78125 23.101562 C 137.382812 23.101562 137.929688 23 138.4375 22.8125 C 138.9375 22.613281 139.484375 22.269531 140.0625 21.761719 L 141.542969 23.832031 C 141.101562 24.234375 140.609375 24.582031 140.046875 24.863281 C 139.484375 25.148438 138.898438 25.375 138.285156 25.535156 C 137.664062 25.703125 137.054688 25.785156 136.457031 25.785156 Z M 136.457031 25.785156 "/>
<path style=" stroke:none;fill-rule:nonzero;fill:rgb(100%,100%,100%);fill-opacity:1;" d="M 144.691406 25.542969 L 144.691406 12.714844 L 147.628906 12.714844 L 147.675781 16.808594 L 147.265625 15.878906 C 147.441406 15.234375 147.75 14.648438 148.191406 14.128906 C 148.632812 13.613281 149.132812 13.199219 149.710938 12.898438 C 150.285156 12.601562 150.886719 12.449219 151.515625 12.449219 C 151.789062 12.449219 152.054688 12.46875 152.304688 12.523438 C 152.554688 12.570312 152.761719 12.628906 152.929688 12.691406 L 152.125 15.976562 C 151.941406 15.878906 151.730469 15.804688 151.46875 15.734375 C 151.210938 15.675781 150.953125 15.636719 150.695312 15.636719 C 150.292969 15.636719 149.90625 15.710938 149.542969 15.863281 C 149.179688 16.015625 148.859375 16.238281 148.585938 16.511719 C 148.3125 16.785156 148.09375 17.105469 147.941406 17.46875 C 147.789062 17.835938 147.714844 18.246094 147.714844 18.703125 L 147.714844 25.542969 Z M 144.691406 25.542969 "/>
<path style=" stroke:none;fill-rule:nonzero;fill:rgb(100%,100%,100%);fill-opacity:1;" d="M 154.871094 25.542969 L 154.871094 12.714844 L 157.808594 12.714844 L 157.855469 15.292969 L 157.367188 15.492188 C 157.511719 15.074219 157.734375 14.675781 158.023438 14.3125 C 158.308594 13.945312 158.660156 13.628906 159.070312 13.359375 C 159.472656 13.09375 159.902344 12.882812 160.359375 12.730469 C 160.816406 12.578125 161.277344 12.5 161.742188 12.5 C 162.441406 12.5 163.054688 12.609375 163.601562 12.828125 C 164.140625 13.050781 164.59375 13.390625 164.960938 13.863281 C 165.324219 14.335938 165.597656 14.9375 165.773438 15.667969 L 165.308594 15.566406 L 165.507812 15.179688 C 165.679688 14.792969 165.929688 14.433594 166.257812 14.121094 C 166.585938 13.800781 166.949219 13.519531 167.351562 13.269531 C 167.753906 13.019531 168.179688 12.828125 168.625 12.699219 C 169.074219 12.570312 169.515625 12.5 169.945312 12.5 C 170.917969 12.5 171.730469 12.699219 172.375 13.085938 C 173.019531 13.476562 173.507812 14.070312 173.832031 14.867188 C 174.160156 15.667969 174.320312 16.648438 174.320312 17.8125 L 174.320312 25.558594 L 171.304688 25.558594 L 171.304688 18.011719 C 171.304688 17.363281 171.222656 16.824219 171.046875 16.40625 C 170.878906 15.984375 170.613281 15.667969 170.273438 15.46875 C 169.925781 15.261719 169.492188 15.164062 168.976562 15.164062 C 168.574219 15.164062 168.1875 15.234375 167.820312 15.371094 C 167.457031 15.507812 167.144531 15.703125 166.886719 15.957031 C 166.628906 16.207031 166.425781 16.496094 166.28125 16.824219 C 166.136719 17.148438 166.058594 17.507812 166.058594 17.894531 L 166.058594 25.566406 L 163.046875 25.566406 L 163.046875 17.996094 C 163.046875 17.378906 162.957031 16.859375 162.78125 16.449219 C 162.597656 16.039062 162.339844 15.71875 162.007812 15.5 C 161.664062 15.277344 161.253906 15.171875 160.769531 15.171875 C 160.367188 15.171875 159.980469 15.238281 159.632812 15.378906 C 159.273438 15.515625 158.960938 15.703125 158.703125 15.949219 C 158.445312 16.191406 158.242188 16.472656 158.097656 16.800781 C 157.953125 17.128906 157.878906 17.484375 157.878906 17.871094 L 157.878906 25.566406 L 154.871094 25.566406 Z M 154.871094 25.542969 "/>
<path style=" stroke:none;fill-rule:nonzero;fill:rgb(100%,100%,100%);fill-opacity:1;" d="M 179.457031 9.984375 C 178.859375 9.984375 178.394531 9.832031 178.0625 9.535156 C 177.726562 9.238281 177.5625 8.8125 177.5625 8.253906 C 177.5625 7.738281 177.726562 7.3125 178.070312 6.992188 C 178.410156 6.664062 178.875 6.503906 179.449219 6.503906 C 180.066406 6.503906 180.535156 6.65625 180.871094 6.953125 C 181.203125 7.25 181.371094 7.691406 181.371094 8.253906 C 181.371094 8.757812 181.203125 9.175781 180.863281 9.496094 C 180.527344 9.824219 180.058594 9.984375 179.457031 9.984375 Z M 178 25.542969 L 178 12.714844 L 180.992188 12.714844 L 180.992188 25.550781 L 178 25.550781 Z M 178 25.542969 "/>
<path style=" stroke:none;fill-rule:nonzero;fill:rgb(100%,100%,100%);fill-opacity:1;" d="M 184.78125 25.542969 L 184.78125 12.714844 L 187.695312 12.714844 L 187.742188 15.347656 L 187.179688 15.636719 C 187.339844 15.050781 187.65625 14.515625 188.128906 14.039062 C 188.597656 13.558594 189.160156 13.171875 189.804688 12.882812 C 190.449219 12.59375 191.117188 12.441406 191.792969 12.441406 C 192.765625 12.441406 193.578125 12.636719 194.238281 13.027344 C 194.890625 13.414062 195.382812 14 195.71875 14.777344 C 196.050781 15.550781 196.21875 16.527344 196.21875 17.699219 L 196.21875 25.542969 L 193.230469 25.542969 L 193.230469 17.917969 C 193.230469 17.273438 193.136719 16.730469 192.964844 16.296875 C 192.78125 15.863281 192.507812 15.550781 192.136719 15.347656 C 191.761719 15.140625 191.308594 15.050781 190.777344 15.066406 C 190.335938 15.066406 189.941406 15.132812 189.578125 15.269531 C 189.214844 15.40625 188.894531 15.605469 188.628906 15.855469 C 188.363281 16.109375 188.148438 16.398438 188 16.722656 C 187.847656 17.050781 187.769531 17.410156 187.769531 17.796875 L 187.769531 25.542969 L 186.28125 25.542969 C 185.996094 25.542969 185.722656 25.542969 185.46875 25.542969 C 185.21875 25.542969 184.984375 25.542969 184.78125 25.542969 Z M 184.78125 25.542969 "/>
<path style=" stroke:none;fill-rule:nonzero;fill:rgb(100%,100%,100%);fill-opacity:1;" d="M 204.410156 25.785156 C 203.355469 25.785156 202.398438 25.496094 201.539062 24.910156 C 200.683594 24.324219 199.992188 23.535156 199.476562 22.523438 C 198.960938 21.515625 198.703125 20.367188 198.703125 19.089844 C 198.703125 17.804688 198.960938 16.664062 199.476562 15.660156 C 199.992188 14.65625 200.699219 13.863281 201.585938 13.300781 C 202.472656 12.730469 203.484375 12.449219 204.601562 12.449219 C 205.246094 12.449219 205.835938 12.539062 206.375 12.730469 C 206.90625 12.917969 207.378906 13.179688 207.789062 13.519531 C 208.191406 13.863281 208.53125 14.25 208.796875 14.691406 C 209.0625 15.132812 209.246094 15.605469 209.34375 16.109375 L 208.691406 15.941406 L 208.691406 12.714844 L 211.703125 12.714844 L 211.703125 25.550781 L 208.667969 25.550781 L 208.667969 22.484375 L 209.375 22.363281 C 209.261719 22.804688 209.054688 23.230469 208.753906 23.640625 C 208.449219 24.050781 208.078125 24.417969 207.636719 24.734375 C 207.1875 25.054688 206.695312 25.304688 206.15625 25.503906 C 205.601562 25.6875 205.023438 25.785156 204.410156 25.785156 Z M 205.230469 23.128906 C 205.929688 23.128906 206.542969 22.964844 207.074219 22.621094 C 207.605469 22.277344 208.023438 21.804688 208.328125 21.199219 C 208.625 20.589844 208.773438 19.890625 208.773438 19.089844 C 208.773438 18.3125 208.625 17.621094 208.328125 17.019531 C 208.023438 16.417969 207.613281 15.949219 207.074219 15.605469 C 206.542969 15.261719 205.929688 15.09375 205.230469 15.09375 C 204.53125 15.09375 203.925781 15.261719 203.394531 15.605469 C 202.871094 15.949219 202.460938 16.417969 202.164062 17.019531 C 201.875 17.621094 201.722656 18.3125 201.722656 19.089844 C 201.722656 19.890625 201.867188 20.589844 202.164062 21.199219 C 202.453125 21.804688 202.863281 22.277344 203.394531 22.621094 C 203.925781 22.964844 204.539062 23.128906 205.230469 23.128906 Z M 205.230469 23.128906 "/>
<path style=" stroke:none;fill-rule:nonzero;fill:rgb(100%,100%,100%);fill-opacity:1;" d="M 215.1875 25.542969 L 215.1875 7.523438 L 218.203125 7.523438 L 218.203125 25.542969 Z M 215.1875 25.542969 "/>
</g>
</svg>
