<svg width="252" height="42" viewBox="0 0 252 42" fill="none" xmlns="http://www.w3.org/2000/svg">
<g clip-path="url(#clip0_154_1270)">
<path d="M41.259 14.1622C41.716 15.1334 41.9717 16.2178 41.9717 17.3611C41.9717 19.449 41.1187 21.3407 39.7442 22.7055C40.3642 23.8812 40.6948 25.199 40.6948 26.5373C40.6948 30.1197 38.3577 33.2912 34.973 34.36C35.0736 34.8099 35.1246 35.2609 35.1246 35.7047C35.1246 39.1356 32.3388 41.9268 28.9152 41.9268L25.158 41.9281C23.806 41.9281 22.7072 40.8264 22.7068 39.4719L22.7068 25.3489L25.1842 27.8314L25.1911 27.8384C25.8592 28.5079 26.9424 28.5079 27.6105 27.8384L41.259 14.1622ZM26.6287 0C28.7123 0 30.4208 1.63598 30.5435 3.69331C30.8734 3.62914 31.2037 3.59621 31.5313 3.59621C34.4154 3.59621 36.7619 5.9472 36.7619 8.83747C36.7619 9.28099 36.7042 9.71846 36.5949 10.1442C37.5229 10.4205 38.3764 10.8718 39.117 11.4598L26.4009 24.2018L22.7068 20.5002L22.7068 3.8929C22.7068 1.76467 24.4427 0.034904 26.5643 0.000521614L26.6287 0Z" fill="url(#paint0_linear_154_1270)"/>
<path d="M15.5136 18.1409L19.2652 21.9001L19.2652 39.5433C19.2652 40.8849 18.1879 41.9781 16.8549 41.9998L16.8144 42.0002L13.0572 41.9988C9.63295 41.9988 6.84715 39.2073 6.84715 35.7764C6.84715 35.3329 6.89778 34.8816 6.99871 34.4317C5.15162 33.8486 3.6163 32.6391 2.60255 31.0783L15.5136 18.1409ZM15.344 0.079834C17.4797 0.079834 19.22 1.64057 19.2639 3.93748H19.2652V10.5083C19.2652 10.6317 19.2853 10.757 19.2853 10.8843C19.2853 10.9193 19.2652 10.9509 19.2652 10.9824L19.2652 17.0515L16.7232 14.5044L16.7022 14.4837C16.0326 13.835 14.9649 13.8419 14.3038 14.5044L1.32571 27.509C1.29297 27.2126 1.27621 26.9122 1.27621 26.6089C1.27621 25.2709 1.60717 23.9528 2.22784 22.7778C0.852708 21.4123 0 19.5206 0 17.433C0 14.0253 2.27143 11.1407 5.37645 10.2157C5.26781 9.79064 5.21013 9.3535 5.21013 8.90964C5.21013 6.02002 7.55634 3.66968 10.4407 3.66968C10.7677 3.66968 11.0986 3.70463 11.4282 3.76914C11.551 1.71213 13.2604 0.079834 15.344 0.079834Z" fill="url(#paint1_linear_154_1270)"/>
</g>
<path d="M55.8193 20.0254C55.8193 16.3136 57.5857 14.5847 64.0308 14.5847C67.8262 14.5847 71.8126 15.3475 74.5577 15.9322L75.2738 12.5508C72.0274 11.7119 67.7784 11.0763 63.9114 11.0763C55.3896 11.0763 52 14.1017 52 20.0254C52 25.9746 55.3896 28.9746 63.9114 28.9746C67.7784 28.9746 72.0274 28.339 75.2738 27.5L74.5577 24.1186C71.8126 24.7288 67.8262 25.4661 64.0308 25.4661C57.5857 25.4661 55.8193 23.7373 55.8193 20.0254Z" fill="white"/>
<path d="M90.1517 29C99.1986 29 103.233 26.2288 103.233 20C103.233 13.7712 99.1986 11 90.1517 11C81.1047 11 77.0706 13.7712 77.0706 20C77.0706 26.2288 81.1047 29 90.1517 29ZM90.1517 25.4915C83.1576 25.4915 80.8899 23.8898 80.8899 20C80.8899 16.1102 83.1576 14.5085 90.1517 14.5085C97.1457 14.5085 99.3657 16.1102 99.3657 20C99.3657 23.8898 97.1457 25.4915 90.1517 25.4915Z" fill="white"/>
<path d="M110.051 28.6695V11.3305H106.232V28.6695H110.051Z" fill="white"/>
<path d="M117.359 28.6695V15.5763L132.851 28.6695H137.147V11.3305H133.328V24.2712L117.908 11.3305H113.539V28.6695H117.359Z" fill="white"/>
<path d="M158.565 28.6695C162.289 28.6695 164.174 27.3475 164.174 24.0424C164.174 21.4237 163.029 20.0763 160.833 19.5424C162.647 19.0339 163.578 17.7373 163.578 15.5763C163.578 12.6017 161.811 11.3305 158.541 11.3305H140.423V28.6695H158.565ZM157.18 15.2203C158.517 15.2203 159.09 15.678 159.09 16.7458C159.09 17.8136 158.374 18.2712 157.3 18.2712H145.197V15.2203H157.18ZM157.706 21.9068C158.923 21.9068 159.687 22.2627 159.687 23.4831C159.687 24.7288 159.042 25.0847 157.586 25.0847H145.197V21.9068H157.706Z" fill="white"/>
<path d="M171.528 28.6695V23.6356H177.711L183.559 28.6695H189.646L184.299 24.1949L183.01 23.3559L184.06 23.3305C187.665 23.0254 189.789 21.1949 189.789 17.3814C189.789 12.8305 186.997 11.3305 182.986 11.3305H166.683V28.6695H171.528ZM171.528 15.7542H182.509C184.108 15.7542 184.777 16.2373 184.777 17.7881C184.777 19.2119 184.108 19.7712 182.509 19.7712H171.528V15.7542Z" fill="white"/>
<path d="M212.368 28.6695H218.24L207.642 11.3305H201.197L190.574 28.6695H196.399L198.38 25.3136H210.411L212.368 28.6695ZM200.48 21.7288L204.395 15.0678L208.286 21.7288H200.48Z" fill="white"/>
<path d="M224.584 28.6695V11.3305H219.738V28.6695H224.584Z" fill="white"/>
<path d="M232.474 28.6695V16.7458L246.581 28.6695H252V11.3305H247.154V23.0508L233.166 11.3305H227.628V28.6695H232.474Z" fill="white"/>
<defs>
<linearGradient id="paint0_linear_154_1270" x1="32.3393" y1="0" x2="32.3393" y2="41.9281" gradientUnits="userSpaceOnUse">
<stop stop-color="#25FFAA"/>
<stop offset="1" stop-color="#02A8CC"/>
</linearGradient>
<linearGradient id="paint1_linear_154_1270" x1="9.64267" y1="0.079834" x2="9.64267" y2="42.0002" gradientUnits="userSpaceOnUse">
<stop stop-color="#0AE3CB"/>
<stop offset="1" stop-color="#325DFF"/>
</linearGradient>
<clipPath id="clip0_154_1270">
<rect width="42" height="42" fill="white"/>
</clipPath>
</defs>
</svg>
