<svg width="32" height="32" viewBox="0 0 32 32" fill="none" xmlns="http://www.w3.org/2000/svg">
<circle cx="16.5925" cy="16.0002" r="15.4074" fill="#C1622A"/>
<path d="M25.2823 4.17285C22.6084 1.93788 19.165 0.592773 15.4074 0.592773C6.89813 0.592773 0 7.4909 0 16.0002C0 22.6444 4.20569 28.3064 10.1002 30.4691L25.2823 4.17285Z" fill="#F6D355"/>
<path d="M10.1001 30.4691L25.2823 4.17285C28.6637 6.99917 30.8148 11.2484 30.8148 16.0002C30.8148 24.5094 23.9166 31.4076 15.4074 31.4076C13.5423 31.4076 11.7547 31.0762 10.1001 30.4691Z" fill="#F1B82B"/>
<circle cx="15.4075" cy="15.9998" r="11.8519" fill="#E18637"/>
<path d="M9.41537 26.2275C6.73997 23.9991 5.03715 20.6428 5.03715 16.8887C5.03715 10.1795 10.4761 4.74054 17.1853 4.74054C18.1498 4.74054 19.088 4.85294 19.9876 5.06535C18.5785 4.47444 17.0312 4.14795 15.4075 4.14795C8.86192 4.14795 3.55566 9.4542 3.55566 15.9998C3.55566 20.3593 5.90939 24.169 9.41537 26.2275Z" fill="#C1622A"/>
<ellipse cx="6.1896" cy="5.89304" rx="0.444444" ry="1.18519" transform="rotate(45 6.1896 5.89304)" fill="white"/>
<ellipse cx="4.48043" cy="7.73987" rx="0.296296" ry="0.592593" transform="rotate(45 4.48043 7.73987)" fill="white"/>
<ellipse cx="0.296296" cy="0.888889" rx="0.296296" ry="0.888889" transform="matrix(0.707106 0.707107 -0.707106 0.707107 25.8496 24.2964)" fill="white"/>
<ellipse cx="26.7895" cy="23.8263" rx="0.148148" ry="0.444445" transform="rotate(45 26.7895 23.8263)" fill="white"/>
<path d="M18.0742 21.6298C18.0742 21.4662 18.2069 21.3335 18.3705 21.3335L-nan -nanC-nan -nan -nan -nan -nan -nanL-nan -nanC-nan -nan -nan -nan -nan -nanL18.3705 21.3335C18.5342 21.3335 18.6668 21.4662 18.6668 21.6298V21.9261C18.6668 22.0897 18.5342 22.2224 18.3705 22.2224L-nan -nanC-nan -nan -nan -nan -nan -nanL-nan -nanC-nan -nan -nan -nan -nan -nanL18.3705 22.2224C18.2069 22.2224 18.0742 22.0897 18.0742 21.9261V21.6298Z" fill="#F1B82B"/>
<path d="M20.1483 21.6298C20.1483 21.4662 20.2809 21.3335 20.4446 21.3335L-nan -nanC-nan -nan -nan -nan -nan -nanL-nan -nanC-nan -nan -nan -nan -nan -nanL20.4446 21.3335C20.6082 21.3335 20.7409 21.4662 20.7409 21.6298V21.9261C20.7409 22.0897 20.6082 22.2224 20.4446 22.2224L-nan -nanC-nan -nan -nan -nan -nan -nanL-nan -nanC-nan -nan -nan -nan -nan -nanL20.4446 22.2224C20.2809 22.2224 20.1483 22.0897 20.1483 21.9261V21.6298Z" fill="#F1B82B"/>
<path d="M10.9628 23.1109C10.3702 21.6294 9.92579 20.6784 9.92578 18.5183C9.92577 15.5553 13.0369 13.6294 17.6295 13.6294C21.0369 13.6294 23.7036 15.7035 23.7036 18.222C23.7036 20.7405 23.5554 22.222 23.4073 23.1109H21.9258C21.9258 22.6664 21.7776 21.9257 21.7776 20.7405C20.8887 21.6294 17.9258 21.9257 16.7406 20.7405C16.7406 21.4812 17.0369 22.222 16.7406 23.1109H15.4073C15.4073 21.9257 15.111 21.7775 15.111 20.8887C14.6665 22.0738 12.7406 22.222 11.9999 20.7405C11.9999 21.7775 12.148 22.3701 12.2962 23.1109H10.9628Z" fill="#F1B82B"/>
<path d="M14.2222 16.8888C14.2222 16.2342 14.7528 15.7036 15.4074 15.7036H17.037V16.2962C17.037 16.9508 16.5064 17.4814 15.8518 17.4814H14.2222V16.8888Z" fill="#C1622A"/>
<path fill-rule="evenodd" clip-rule="evenodd" d="M14 16.8889C14 16.1116 14.6301 15.4814 15.4074 15.4814H17.037C17.1598 15.4814 17.2593 15.5809 17.2593 15.7037V16.2963C17.2593 17.0736 16.6291 17.7037 15.8519 17.7037H14.2222C14.0995 17.7037 14 17.6042 14 17.4814V16.8889ZM15.4074 15.9259C14.8756 15.9259 14.4444 16.357 14.4444 16.8889V17.2592H15.8519C16.3837 17.2592 16.8148 16.8281 16.8148 16.2963V15.9259H15.4074Z" fill="#C1622A"/>
<path d="M14.6665 16.5924C14.6665 15.9379 15.1971 15.4072 15.8517 15.4072H17.0369V15.9998C17.0369 16.6544 16.5062 17.185 15.8517 17.185H14.6665V16.5924Z" fill="#C1622A"/>
<path fill-rule="evenodd" clip-rule="evenodd" d="M14.4443 16.5925C14.4443 15.8152 15.0745 15.1851 15.8517 15.1851H17.0369C17.1597 15.1851 17.2592 15.2846 17.2592 15.4073V15.9999C17.2592 16.7772 16.629 17.4073 15.8517 17.4073H14.6666C14.5438 17.4073 14.4443 17.3078 14.4443 17.1851V16.5925ZM15.8517 15.6295C15.3199 15.6295 14.8888 16.0606 14.8888 16.5925V16.9628H15.8517C16.3836 16.9628 16.8147 16.5317 16.8147 15.9999V15.6295H15.8517Z" fill="#F6D355"/>
<path fill-rule="evenodd" clip-rule="evenodd" d="M11.8519 17.4814C11.2791 17.4814 10.8149 17.9457 10.8149 18.5184C10.8149 19.0911 11.2791 19.5554 11.8519 19.5554C12.4246 19.5554 12.8889 19.0911 12.8889 18.5184C12.8889 17.9457 12.4246 17.4814 11.8519 17.4814ZM10.5186 18.5184C10.5186 17.782 11.1155 17.1851 11.8519 17.1851C12.5883 17.1851 13.1852 17.782 13.1852 18.5184C13.1852 19.2548 12.5883 19.8517 11.8519 19.8517C11.1155 19.8517 10.5186 19.2548 10.5186 18.5184Z" fill="#FC8D60"/>
<path fill-rule="evenodd" clip-rule="evenodd" d="M11.852 17.9259C11.5247 17.9259 11.2594 18.1912 11.2594 18.5185C11.2594 18.8458 11.5247 19.1111 11.852 19.1111C12.1793 19.1111 12.4446 18.8458 12.4446 18.5185C12.4446 18.1912 12.1793 17.9259 11.852 17.9259ZM10.0742 18.5185C10.0742 17.5367 10.8702 16.7407 11.852 16.7407C12.8338 16.7407 13.6298 17.5367 13.6298 18.5185C13.6298 19.5003 12.8338 20.2963 11.852 20.2963C10.8702 20.2963 10.0742 19.5003 10.0742 18.5185ZM10.815 18.5185C10.815 17.9458 11.2793 17.4815 11.852 17.4815C12.4247 17.4815 12.889 17.9458 12.889 18.5185C12.889 19.0912 12.4247 19.5555 11.852 19.5555C11.2793 19.5555 10.815 19.0912 10.815 18.5185ZM11.852 17.1852C11.1156 17.1852 10.5187 17.7821 10.5187 18.5185C10.5187 19.2549 11.1156 19.8518 11.852 19.8518C12.5884 19.8518 13.1853 19.2549 13.1853 18.5185C13.1853 17.7821 12.5884 17.1852 11.852 17.1852Z" fill="#C1622A"/>
<path d="M9.62947 12.7411C10.2022 12.7411 10.6665 13.0374 10.6665 13.6299C10.6665 14.2223 10.2221 14.5188 9.77761 14.5188C9.33317 14.5188 9.18502 14.2226 9.18502 14.2226C8.74058 14.2226 8.29613 13.926 8.29613 13.3336C8.29613 12.7411 8.59243 11.5559 8.14799 11.5559C7.85169 11.5559 8.29613 10.9632 7.99984 10.3706H7.99985C8.14801 10.3706 8.59243 10.3708 8.59243 10.8151C8.59243 12.0004 8.14799 12.7411 9.62947 12.7411Z" fill="#FC8D60"/>
<path fill-rule="evenodd" clip-rule="evenodd" d="M8.31977 12.9591C8.30626 13.0965 8.29631 13.2249 8.29631 13.3334C8.29631 13.9259 8.74076 14.2225 9.1852 14.2225C9.1852 14.2225 9.33335 14.5186 9.7778 14.5186C10.2222 14.5186 10.6667 14.2222 10.6667 13.6297C10.6667 13.0373 10.2024 12.741 9.62965 12.741C9.3303 12.741 9.10959 12.7108 8.94795 12.6527C8.47384 12.4825 8.50798 12.0731 8.55693 11.4861C8.5638 11.4038 8.57095 11.318 8.57704 11.2288C8.58006 11.1846 8.58281 11.1396 8.58514 11.0938C8.5897 11.0038 8.59261 10.9108 8.59261 10.8149C8.59261 10.3706 8.14819 10.3705 8.00003 10.3705C8.00004 10.3705 8.00003 10.3705 8.00003 10.3705C8.07574 10.5219 8.10308 10.6734 8.10677 10.8149C8.10809 10.8656 8.10639 10.9149 8.10279 10.9626C8.10265 10.9644 8.10251 10.9663 8.10236 10.9681C8.09474 11.0649 8.07944 11.1545 8.06602 11.233C8.03262 11.4286 8.01088 11.5558 8.14817 11.5558C8.47043 11.5558 8.40324 12.1789 8.34194 12.7474C8.33419 12.8193 8.32654 12.8903 8.31977 12.9591ZM7.80046 12.0619C7.74642 12.0322 7.69283 11.9928 7.64276 11.941C7.48656 11.7794 7.45731 11.5902 7.4506 11.4961C7.44362 11.3984 7.45487 11.3078 7.46242 11.2543C7.46823 11.2131 7.47659 11.1641 7.48342 11.1241C7.48569 11.1109 7.48778 11.0986 7.48956 11.088C7.52463 10.8775 7.52681 10.7491 7.46999 10.6355C7.37814 10.4518 7.38795 10.2337 7.49593 10.0589C7.6039 9.88424 7.79464 9.77789 8.00002 9.77789C8.00292 9.77789 8.0064 9.77788 8.01011 9.77787C8.0881 9.77758 8.34091 9.77666 8.58537 9.88146C8.72486 9.94126 8.88361 10.0439 9.00546 10.217C9.12984 10.3937 9.1852 10.6006 9.1852 10.8149C9.1852 11.0855 9.16394 11.3393 9.14689 11.5429C9.14337 11.5849 9.14003 11.6248 9.13709 11.6623C9.11821 11.9031 9.11902 12.0209 9.13304 12.0891C9.18491 12.1111 9.32315 12.1484 9.62965 12.1484C10.0101 12.1484 10.4108 12.246 10.7301 12.4981C11.0669 12.7639 11.2593 13.161 11.2593 13.6297C11.2593 14.0868 11.0819 14.4731 10.7826 14.7392C10.4942 14.9957 10.1264 15.1112 9.7778 15.1112C9.4117 15.1112 9.13485 14.9854 8.94475 14.8334C8.92565 14.8181 8.90764 14.8027 8.89068 14.7874C8.63725 14.7395 8.38815 14.6278 8.18031 14.443C7.88104 14.1769 7.70372 13.7905 7.70372 13.3334C7.70372 13.148 7.7263 12.9307 7.74645 12.7426C7.7485 12.7235 7.75054 12.7045 7.75256 12.6858C7.77194 12.5058 7.78962 12.3415 7.79705 12.1929C7.7995 12.1439 7.80061 12.1004 7.80046 12.0619Z" fill="#C1622A"/>
<path d="M11.2593 14.0743C11.2593 12.847 12.2542 11.8521 13.4815 11.8521V11.8521C14.2179 11.8521 14.8148 12.449 14.8148 13.1854V17.778C14.8148 18.4325 14.2842 18.9632 13.6296 18.9632H12.4445C11.7899 18.9632 11.2593 18.4325 11.2593 17.778V14.0743Z" fill="#F1B82B"/>
<path fill-rule="evenodd" clip-rule="evenodd" d="M11.8974 14.7124C13.3106 13.8219 15.2965 13.3335 17.6294 13.3335C21.1209 13.3335 23.9998 15.4707 23.9998 18.2224C23.9998 20.7517 23.851 22.2503 23.6994 23.16C23.6756 23.3029 23.552 23.4076 23.4072 23.4076H21.9257C21.7621 23.4076 21.6294 23.2749 21.6294 23.1113C21.6294 22.9587 21.6102 22.7684 21.5843 22.5119C21.5757 22.4263 21.5663 22.3334 21.5567 22.232C21.5316 21.9688 21.5064 21.6621 21.4924 21.307C21.4315 21.3398 21.3683 21.3709 21.3032 21.4004C21.3227 21.4736 21.3331 21.5505 21.3331 21.6298V21.9261C21.3331 22.417 20.9351 22.815 20.4442 22.815C19.9533 22.815 19.5553 22.417 19.5553 21.9261V21.8058C19.4974 21.8096 19.4393 21.8126 19.3811 21.8148C19.3321 21.8166 19.2828 21.8178 19.2334 21.8184C19.2419 21.8183 19.2505 21.8182 19.259 21.8181V21.9261C19.259 22.417 18.8611 22.815 18.3701 22.815C17.8792 22.815 17.4812 22.417 17.4812 21.9261V21.6298C17.4812 21.6003 17.4827 21.5712 17.4855 21.5424C17.3476 21.4905 17.2148 21.4304 17.0888 21.3618L17.0973 21.4268C17.1147 21.5605 17.1332 21.702 17.1466 21.8424C17.1856 22.2519 17.188 22.7056 17.0216 23.205C16.9813 23.326 16.868 23.4076 16.7405 23.4076H15.4072C15.2435 23.4076 15.1109 23.2749 15.1109 23.1113C15.1109 22.55 15.0418 22.2418 14.9716 21.9609L14.9657 21.9374L14.9554 21.8968C14.9375 21.8256 14.9193 21.7538 14.9023 21.6786C14.5619 21.9636 14.1154 22.1113 13.6664 22.1113C13.207 22.1113 12.7338 21.9587 12.3402 21.6389C12.3843 22.0619 12.457 22.4174 12.5365 22.8064C12.553 22.8869 12.5697 22.9689 12.5866 23.0532C12.604 23.1402 12.5815 23.2305 12.5252 23.2991C12.4689 23.3678 12.3848 23.4076 12.2961 23.4076H10.9627C10.8416 23.4076 10.7326 23.3338 10.6876 23.2213C10.6488 23.1242 10.6105 23.0291 10.5728 22.9356C10.0348 21.6006 9.6294 20.5944 9.62939 18.5187C9.62939 16.917 10.4762 15.608 11.8974 14.7124ZM18.042 21.7048C18.0526 21.7071 18.0632 21.7094 18.0738 21.7116V21.9261C18.0738 22.0897 18.2065 22.2224 18.3701 22.2224C18.5338 22.2224 18.6664 22.0897 18.6664 21.9261V21.7979C18.6664 21.7979 18.6664 21.7979 18.6664 21.7979C18.456 21.7796 18.2463 21.7492 18.042 21.7048ZM20.1479 21.7374V21.9261C20.1479 22.0897 20.2806 22.2224 20.4442 22.2224C20.6078 22.2224 20.7405 22.0897 20.7405 21.9261V21.6298C20.7405 21.6214 20.7402 21.6132 20.7395 21.605C20.5512 21.6588 20.3527 21.7033 20.1479 21.7374ZM12.2133 15.2138C10.9307 16.022 10.222 17.1574 10.222 18.5187C10.222 20.479 10.5924 21.3984 11.1228 22.715L11.1631 22.815H11.9334C11.8119 22.2185 11.7035 21.637 11.7035 20.7409C11.7035 20.6035 11.798 20.4841 11.9317 20.4525C12.0654 20.421 12.2033 20.4855 12.2648 20.6084C12.5827 21.2443 13.144 21.5187 13.6664 21.5187C14.1986 21.5187 14.6631 21.2393 14.8334 20.785C14.8837 20.6509 15.0228 20.572 15.1637 20.5975C15.3047 20.6231 15.4072 20.7458 15.4072 20.8891C15.4072 21.2642 15.4633 21.4868 15.5308 21.7549L15.5465 21.8172C15.6112 22.0759 15.6766 22.3668 15.697 22.815H16.5165C16.589 22.5011 16.5856 22.2023 16.5567 21.8986C16.5443 21.7687 16.528 21.6442 16.5112 21.5153L16.5112 21.515C16.5035 21.4562 16.4957 21.3966 16.4881 21.3351C16.4646 21.1444 16.4442 20.9447 16.4442 20.7409C16.4442 20.6211 16.5164 20.513 16.6271 20.4672C16.7378 20.4213 16.8653 20.4466 16.95 20.5314C17.4556 21.037 18.3894 21.2585 19.3592 21.2226C19.835 21.205 20.2989 21.1256 20.6922 21.0003C21.0908 20.8732 21.3927 20.7068 21.568 20.5314C21.6528 20.4466 21.7802 20.4213 21.8909 20.4672C22.0016 20.513 22.0738 20.6211 22.0738 20.7409C22.0738 21.3207 22.11 21.7921 22.1466 22.1758C22.1548 22.262 22.1632 22.3456 22.1714 22.426C22.1855 22.5656 22.1987 22.6959 22.2081 22.815H23.1537C23.2637 22.0676 23.3675 20.9488 23.3981 19.2594H21.3331C19.3694 19.2594 17.7775 17.6675 17.7775 15.7039V13.9274C17.7284 13.9265 17.679 13.9261 17.6294 13.9261C15.3697 13.9261 13.5038 14.4006 12.2133 15.2138ZM23.4072 18.2224C23.4072 18.3743 23.4066 18.5224 23.4056 18.6668H21.3331C19.6967 18.6668 18.3701 17.3403 18.3701 15.7039V13.9601C21.311 14.2328 23.4072 16.1104 23.4072 18.2224Z" fill="#C1622A"/>
<path fill-rule="evenodd" clip-rule="evenodd" d="M13.4817 12.1483C12.418 12.1483 11.5557 13.0105 11.5557 14.0742V17.7779C11.5557 18.2688 11.9537 18.6668 12.4446 18.6668H13.6298C14.1207 18.6668 14.5187 18.2688 14.5187 17.7779V13.1853C14.5187 12.6126 14.0544 12.1483 13.4817 12.1483Z" fill="#C1622A"/>
<path fill-rule="evenodd" clip-rule="evenodd" d="M8.59277 14.8149C8.59277 13.0149 10.052 11.5557 11.852 11.5557H13.4817C14.3817 11.5557 15.1113 12.2853 15.1113 13.1853V17.7779C15.1113 18.5961 14.448 19.2594 13.6298 19.2594H10.0743C9.25606 19.2594 8.59277 18.5961 8.59277 17.7779V14.8149ZM13.4817 12.1483C12.418 12.1483 11.5557 13.0105 11.5557 14.0742V17.7779C11.5557 18.2688 11.9537 18.6668 12.4446 18.6668H13.6298C14.1207 18.6668 14.5187 18.2688 14.5187 17.7779V13.1853C14.5187 12.6126 14.0544 12.1483 13.4817 12.1483Z" fill="#C1622A"/>
<path d="M22.8148 17.185C22.8148 17.3486 22.6821 17.4813 22.5185 17.4813C22.3548 17.4813 22.2222 17.3486 22.2222 17.185C22.2222 17.0213 22.3548 16.8887 22.5185 16.8887C22.6821 16.8887 22.8148 17.0213 22.8148 17.185Z" fill="white"/>
<path d="M11.5557 14.0744C11.5557 13.0107 12.4179 12.1484 13.4816 12.1484C14.0543 12.1484 14.5186 12.6127 14.5186 13.1855V17.7781C14.5186 18.269 14.1207 18.667 13.6297 18.667H12.4446C11.9536 18.667 11.5557 18.269 11.5557 17.7781V14.0744Z" fill="#F1B82B"/>
<path d="M11.5557 18.2224V18.6668H13.6297C14.1207 18.6668 14.5186 18.2689 14.5186 17.7779V13.3335C14.5186 12.8891 14.3705 12.5928 14.2223 12.5928C14.2223 12.7409 14.2223 12.5851 14.2223 12.6915V17.6298C14.2223 17.9571 13.957 18.2224 13.6297 18.2224H11.5557Z" fill="#F6D355"/>
<path fill-rule="evenodd" clip-rule="evenodd" d="M15.8282 12.9591C15.8417 13.0965 15.8516 13.2249 15.8516 13.3334C15.8516 13.9259 15.4072 14.2225 14.9627 14.2225C14.9627 14.2225 14.8146 14.5186 14.3702 14.5186C13.9257 14.5186 13.4813 14.2222 13.4813 13.6297C13.4813 13.0373 13.9456 12.741 14.5183 12.741C14.8176 12.741 15.0384 12.7108 15.2 12.6527C15.6741 12.4825 15.64 12.0731 15.591 11.4861C15.5842 11.4038 15.577 11.318 15.5709 11.2288C15.5679 11.1846 15.5651 11.1396 15.5628 11.0938C15.5582 11.0038 15.5553 10.9108 15.5553 10.8149C15.5553 10.3706 15.9998 10.3705 16.1479 10.3705C16.1479 10.3705 16.1479 10.3705 16.1479 10.3705C16.0722 10.5219 16.0449 10.6734 16.0412 10.8149C16.0399 10.8656 16.0416 10.9149 16.0452 10.9626C16.0453 10.9644 16.0454 10.9663 16.0456 10.9681C16.0532 11.0649 16.0685 11.1545 16.0819 11.233C16.1153 11.4286 16.1371 11.5558 15.9998 11.5558C15.6775 11.5558 15.7447 12.1789 15.806 12.7474C15.8138 12.8193 15.8214 12.8903 15.8282 12.9591ZM16.3475 12.0619C16.4015 12.0322 16.4551 11.9928 16.5052 11.941C16.6614 11.7794 16.6906 11.5902 16.6974 11.4961C16.7043 11.3984 16.6931 11.3078 16.6855 11.2543C16.6797 11.2131 16.6714 11.1641 16.6645 11.1241C16.6623 11.1109 16.6602 11.0986 16.6584 11.088C16.6233 10.8775 16.6211 10.7491 16.678 10.6355C16.7698 10.4518 16.76 10.2337 16.652 10.0589C16.544 9.88424 16.3533 9.77789 16.1479 9.77789C16.145 9.77789 16.1416 9.77788 16.1378 9.77787C16.0598 9.77758 15.807 9.77666 15.5626 9.88146C15.4231 9.94126 15.2643 10.0439 15.1425 10.217C15.0181 10.3937 14.9627 10.6006 14.9627 10.8149C14.9627 11.0855 14.984 11.3393 15.0011 11.5429C15.0046 11.5849 15.0079 11.6248 15.0109 11.6623C15.0297 11.9031 15.0289 12.0209 15.0149 12.0891C14.963 12.1111 14.8248 12.1484 14.5183 12.1484C14.1378 12.1484 13.7372 12.246 13.4179 12.4981C13.081 12.7639 12.8887 13.161 12.8887 13.6297C12.8887 14.0868 13.066 14.4731 13.3653 14.7392C13.6537 14.9957 14.0216 15.1112 14.3702 15.1112C14.7362 15.1112 15.0131 14.9854 15.2032 14.8334C15.2223 14.8181 15.2403 14.8027 15.2573 14.7874C15.5107 14.7395 15.7598 14.6278 15.9676 14.443C16.2669 14.1769 16.4442 13.7905 16.4442 13.3334C16.4442 13.148 16.4217 12.9307 16.4015 12.7426C16.3995 12.7235 16.3974 12.7045 16.3954 12.6858C16.376 12.5058 16.3583 12.3415 16.3509 12.1929C16.3484 12.1439 16.3473 12.1004 16.3475 12.0619Z" fill="#C1622A"/>
<path d="M19.4072 15.5554C19.4072 15.4736 19.4736 15.4072 19.5554 15.4072H21.4813C21.5631 15.4072 21.6294 15.4736 21.6294 15.5554V15.6467C21.6294 15.6833 21.6159 15.7186 21.5914 15.7458L20.3236 17.1545C20.3059 17.1741 20.2961 17.1996 20.2961 17.2261V17.2261C20.2961 17.2852 20.3441 17.3332 20.4032 17.3332H21.4813C21.5631 17.3332 21.6294 17.3995 21.6294 17.4813V17.4813C21.6294 17.5631 21.5631 17.6294 21.4813 17.6294H19.5554C19.4736 17.6294 19.4072 17.5631 19.4072 17.4813V17.3332L19.4072 17.2419C19.4072 17.2053 19.4208 17.17 19.4453 17.1427L20.518 15.9508C20.6038 15.8554 20.5362 15.7035 20.4079 15.7035H19.5554C19.4736 15.7035 19.4072 15.6372 19.4072 15.5554V15.5554Z" fill="#C1622A"/>
<path d="M8 17.9262C8 17.3535 8.4643 16.8892 9.03704 16.8892H11.1111C11.6839 16.8892 12.1481 17.3535 12.1481 17.9262V17.9262C12.1481 18.4989 11.6839 18.9632 11.1111 18.9632H9.03704C8.4643 18.9632 8 18.4989 8 17.9262V17.9262Z" fill="#F6D355"/>
<path fill-rule="evenodd" clip-rule="evenodd" d="M7.70361 17.9261C7.70361 17.1897 8.30057 16.5928 9.03695 16.5928H11.111C11.8474 16.5928 12.4444 17.1897 12.4444 17.9261C12.4444 18.6625 11.8474 19.2594 11.111 19.2594H9.03695C8.30057 19.2594 7.70361 18.6625 7.70361 17.9261ZM9.03695 17.1854C8.62785 17.1854 8.29621 17.517 8.29621 17.9261C8.29621 18.3352 8.62785 18.6668 9.03695 18.6668H11.111C11.5201 18.6668 11.8518 18.3352 11.8518 17.9261C11.8518 17.517 11.5201 17.1854 11.111 17.1854H9.03695Z" fill="#C1622A"/>
<path d="M9.48126 17.7777C9.48126 17.9414 9.34861 18.074 9.18497 18.074C9.02133 18.074 8.88867 17.9414 8.88867 17.7777C8.88867 17.6141 9.02133 17.4814 9.18497 17.4814C9.34861 17.4814 9.48126 17.6141 9.48126 17.7777Z" fill="#C1622A"/>
<path d="M10.6668 17.7777C10.6668 17.9414 10.5342 18.074 10.3705 18.074C10.2069 18.074 10.0742 17.9414 10.0742 17.7777C10.0742 17.6141 10.2069 17.4814 10.3705 17.4814C10.5342 17.4814 10.6668 17.6141 10.6668 17.7777Z" fill="#C1622A"/>
<path d="M10.3704 15.6298C10.3704 15.9162 10.2378 16.1484 10.0741 16.1484C9.91049 16.1484 9.77783 15.9162 9.77783 15.6298C9.77783 15.3435 9.91049 15.1113 10.0741 15.1113C10.2378 15.1113 10.3704 15.3435 10.3704 15.6298Z" fill="white"/>
<path d="M10.3704 13.9262C10.3704 14.0898 10.2378 14.2225 10.0741 14.2225C9.91049 14.2225 9.77783 14.0898 9.77783 13.9262C9.77783 13.7625 9.91049 13.6299 10.0741 13.6299C10.2378 13.6299 10.3704 13.7625 10.3704 13.9262Z" fill="white"/>
<path d="M10.6669 13.4816C10.6669 13.5635 10.6006 13.6298 10.5188 13.6298C10.4369 13.6298 10.3706 13.5635 10.3706 13.4816C10.3706 13.3998 10.4369 13.3335 10.5188 13.3335C10.6006 13.3335 10.6669 13.3998 10.6669 13.4816Z" fill="white"/>
<path d="M12.4446 15.6298C12.4446 15.9162 12.312 16.1484 12.1483 16.1484C11.9847 16.1484 11.8521 15.9162 11.8521 15.6298C11.8521 15.3435 11.9847 15.1113 12.1483 15.1113C12.312 15.1113 12.4446 15.3435 12.4446 15.6298Z" fill="white"/>
<path d="M14.5185 12.7411C13.9457 12.7411 13.4814 13.0374 13.4814 13.6299C13.4814 14.2223 13.9259 14.5188 14.3703 14.5188C14.8148 14.5188 14.9629 14.2226 14.9629 14.2226C15.4074 14.2226 15.8518 13.926 15.8518 13.3336C15.8518 12.7411 15.5555 11.5559 16 11.5559C16.2963 11.5559 15.8518 10.9632 16.1481 10.3706H16.1481C15.9999 10.3706 15.5555 10.3708 15.5555 10.8151C15.5555 12.0004 16 12.7411 14.5185 12.7411Z" fill="#FC8D60"/>
<path d="M19.1563 3.16081C19.0885 3.03859 19.2526 2.92088 19.3493 3.02237L22.3235 6.14213C22.3611 6.18151 22.4208 6.19086 22.4689 6.16486L26.2738 4.10532C26.3976 4.03832 26.5168 4.20033 26.414 4.29587L23.2546 7.2327C23.2147 7.26977 23.2052 7.32878 23.2315 7.37621L25.3173 11.1334C25.3852 11.2556 25.2211 11.3733 25.1243 11.2718L22.1501 8.15203C22.1126 8.11265 22.0528 8.10331 22.0048 8.1293L18.1998 10.1888C18.076 10.2558 17.9568 10.0938 18.0596 9.9983L21.2191 7.06147C21.259 7.02439 21.2684 6.96539 21.2421 6.91796L19.1563 3.16081Z" fill="white"/>
</svg>
