<svg width="108" height="108" viewBox="0 0 108 108" fill="none" xmlns="http://www.w3.org/2000/svg">
<circle cx="56" cy="54" r="52" fill="#C1622A"/>
<path d="M85.3279 14.0828C76.3032 6.53974 64.6818 2 52 2C23.2812 2 0 25.2812 0 54C0 76.4243 14.1942 95.5334 34.0881 102.833L85.3279 14.0828Z" fill="#F6D355"/>
<path d="M34.088 102.833L85.3279 14.0828C96.7402 23.6216 104 37.9629 104 54C104 82.7188 80.7188 106 52 106C45.7056 106 39.6722 104.882 34.088 102.833Z" fill="#F1B82B"/>
<circle cx="52" cy="54" r="40" fill="#E18637"/>
<path d="M31.7765 88.5185C22.747 80.9977 17 69.67 17 57C17 34.3563 35.3563 16 58 16C61.2551 16 64.4217 16.3793 67.4578 17.0962C62.7022 15.1019 57.4798 14 52 14C29.9086 14 12 31.9086 12 54C12 68.7132 19.9438 81.571 31.7765 88.5185Z" fill="#C1622A"/>
<ellipse cx="20.8891" cy="19.8891" rx="1.5" ry="4" transform="rotate(45 20.8891 19.8891)" fill="white"/>
<ellipse cx="15.1213" cy="26.1213" rx="1" ry="2" transform="rotate(45 15.1213 26.1213)" fill="white"/>
<ellipse cx="85.8285" cy="84.8284" rx="1" ry="3" transform="rotate(45 85.8285 84.8284)" fill="white"/>
<ellipse cx="90.4142" cy="80.4142" rx="0.5" ry="1.5" transform="rotate(45 90.4142 80.4142)" fill="white"/>
<path d="M61 73C61 72.4477 61.4477 72 62 72Lnan nanCnan nan -nan -nan -nan -nanL-nan -nanC-nan -nan nan nan nan nanL62 72C62.5523 72 63 72.4477 63 73V74C63 74.5523 62.5523 75 62 75Lnan nanCnan nan -nan -nan -nan -nanL-nan -nanC-nan -nan nan nan nan nanL62 75C61.4477 75 61 74.5523 61 74V73Z" fill="#F1B82B"/>
<path d="M68 73C68 72.4477 68.4477 72 69 72Lnan nanCnan nan -nan -nan -nan -nanL-nan -nanC-nan -nan nan nan nan nanL69 72C69.5523 72 70 72.4477 70 73V74C70 74.5523 69.5523 75 69 75Lnan nanCnan nan -nan -nan -nan -nanL-nan -nanC-nan -nan nan nan nan nanL69 75C68.4477 75 68 74.5523 68 74V73Z" fill="#F1B82B"/>
<path d="M37 78C35 73 33.5 69.7904 33.5 62.5C33.5 52.5 44 46 59.5 46C71 46 80 53 80 61.5C80 70 79.5 75 79 78H74C74 76.5 73.5 74 73.5 70C70.5 73 60.5 74 56.5 70C56.5 72.5 57.5 75 56.5 78H52C52 74 51 73.5 51 70.5C49.5 74.5 43 75 40.5 70C40.5 73.5 41 75.5 41.5 78H37Z" fill="#F1B82B"/>
<path d="M48 57C48 54.7909 49.7909 53 52 53H57.5V55C57.5 57.2091 55.7091 59 53.5 59H48V57Z" fill="#C1622A"/>
<path fill-rule="evenodd" clip-rule="evenodd" d="M47.25 57C47.25 54.3766 49.3766 52.25 52 52.25H57.5C57.9142 52.25 58.25 52.5858 58.25 53V55C58.25 57.6234 56.1234 59.75 53.5 59.75H48C47.5858 59.75 47.25 59.4142 47.25 59V57ZM52 53.75C50.2051 53.75 48.75 55.2051 48.75 57V58.25H53.5C55.2949 58.25 56.75 56.7949 56.75 55V53.75H52Z" fill="#C1622A"/>
<path d="M49.5 56C49.5 53.7909 51.2909 52 53.5 52H57.5V54C57.5 56.2091 55.7091 58 53.5 58H49.5V56Z" fill="#C1622A"/>
<path fill-rule="evenodd" clip-rule="evenodd" d="M48.75 56C48.75 53.3766 50.8766 51.25 53.5 51.25H57.5C57.9142 51.25 58.25 51.5858 58.25 52V54C58.25 56.6234 56.1234 58.75 53.5 58.75H49.5C49.0858 58.75 48.75 58.4142 48.75 58V56ZM53.5 52.75C51.7051 52.75 50.25 54.2051 50.25 56V57.25H53.5C55.2949 57.25 56.75 55.7949 56.75 54V52.75H53.5Z" fill="#F6D355"/>
<path fill-rule="evenodd" clip-rule="evenodd" d="M40 59C38.067 59 36.5 60.567 36.5 62.5C36.5 64.433 38.067 66 40 66C41.933 66 43.5 64.433 43.5 62.5C43.5 60.567 41.933 59 40 59ZM35.5 62.5C35.5 60.0147 37.5147 58 40 58C42.4853 58 44.5 60.0147 44.5 62.5C44.5 64.9853 42.4853 67 40 67C37.5147 67 35.5 64.9853 35.5 62.5Z" fill="#FC8D60"/>
<path fill-rule="evenodd" clip-rule="evenodd" d="M40 60.5C38.8954 60.5 38 61.3954 38 62.5C38 63.6046 38.8954 64.5 40 64.5C41.1046 64.5 42 63.6046 42 62.5C42 61.3954 41.1046 60.5 40 60.5ZM34 62.5C34 59.1863 36.6863 56.5 40 56.5C43.3137 56.5 46 59.1863 46 62.5C46 65.8137 43.3137 68.5 40 68.5C36.6863 68.5 34 65.8137 34 62.5ZM36.5 62.5C36.5 60.567 38.067 59 40 59C41.933 59 43.5 60.567 43.5 62.5C43.5 64.433 41.933 66 40 66C38.067 66 36.5 64.433 36.5 62.5ZM40 58C37.5147 58 35.5 60.0147 35.5 62.5C35.5 64.9853 37.5147 67 40 67C42.4853 67 44.5 64.9853 44.5 62.5C44.5 60.0147 42.4853 58 40 58Z" fill="#C1622A"/>
<path d="M32.5 43.0005C34.433 43.0005 36 44.0005 36 46C36 47.9995 34.5 49 33 49C31.5 49 31 48.0005 31 48.0005C29.5 48.0005 28 46.9995 28 45C28 43.0005 29 39.0005 27.5 39.0005C26.5 39.0005 28 36.9999 27 35H27C27.5001 35.0001 29 35.0005 29 36.5C29 40.5005 27.5 43.0005 32.5 43.0005Z" fill="#FC8D60"/>
<path fill-rule="evenodd" clip-rule="evenodd" d="M28.0792 43.7364C28.0336 44.2001 28 44.6336 28 45C28 46.9995 29.5 48.0004 31 48.0004C31 48.0004 31.5 49 33 49C34.5 49 36 47.9995 36 46C36 44.0004 34.433 43.0004 32.5 43.0004C31.4897 43.0004 30.7448 42.8984 30.1993 42.7025C28.5992 42.1279 28.7144 40.7462 28.8796 38.7653C28.9028 38.4874 28.9269 38.1977 28.9475 37.8967C28.9576 37.7476 28.9669 37.5957 28.9748 37.4411C28.9902 37.1376 29 36.8237 29 36.5C29 35.0005 27.5001 35.0001 27 35C27.0001 35 27 34.9999 27 35C27.2556 35.511 27.3478 36.0222 27.3603 36.5C27.3648 36.6708 27.359 36.8375 27.3469 36.9983C27.3464 37.0045 27.3459 37.0107 27.3454 37.0169C27.3197 37.3436 27.268 37.6459 27.2227 37.9111C27.11 38.571 27.0367 39.0004 27.5 39.0004C28.5876 39.0004 28.3609 41.1035 28.154 43.0221C28.1278 43.2647 28.102 43.5043 28.0792 43.7364ZM26.3265 40.7086C26.1441 40.6082 25.9632 40.4753 25.7943 40.3004C25.2671 39.7549 25.1684 39.1163 25.1457 38.7991C25.1222 38.4693 25.1601 38.1635 25.1856 37.9828C25.2052 37.8438 25.2334 37.6784 25.2565 37.5435C25.2641 37.4988 25.2712 37.4574 25.2772 37.4214C25.3956 36.7111 25.4029 36.2779 25.2112 35.8944C24.9012 35.2744 24.9343 34.5382 25.2987 33.9485C25.6631 33.3589 26.3068 33 27 33C27.0098 33 27.0215 32.9999 27.034 32.9999C27.2973 32.9989 28.1505 32.9958 28.9756 33.3495C29.4463 33.5513 29.9821 33.8976 30.3934 34.4819C30.8131 35.0784 31 35.7767 31 36.5C31 37.413 30.9282 38.2697 30.8707 38.9567C30.8588 39.0986 30.8475 39.2333 30.8376 39.3597C30.7739 40.1725 30.7766 40.5702 30.8239 40.8004C30.999 40.8746 31.4656 41.0004 32.5 41.0004C33.7841 41.0004 35.1364 41.3299 36.214 42.1805C37.3509 43.0779 38 44.418 38 46C38 47.5425 37.4015 48.8464 36.3913 49.7445C35.4179 50.6099 34.1764 51 33 51C31.7644 51 30.8301 50.5753 30.1885 50.0622C30.124 50.0107 30.0632 49.9588 30.006 49.9072C29.1506 49.7453 28.3099 49.3683 27.6085 48.7446C26.5984 47.8464 26 46.5425 26 45C26 44.3742 26.0762 43.6405 26.1442 43.0059C26.1511 42.9414 26.158 42.8774 26.1648 42.814C26.2302 42.2065 26.2899 41.6522 26.315 41.1505C26.3233 40.9854 26.327 40.8383 26.3265 40.7086Z" fill="#C1622A"/>
<path d="M38 47.5005C38 43.3584 41.3579 40.0005 45.5 40.0005V40.0005C47.9853 40.0005 50 42.0152 50 44.5005V60.0005C50 62.2096 48.2091 64.0005 46 64.0005H42C39.7909 64.0005 38 62.2096 38 60.0005V47.5005Z" fill="#F1B82B"/>
<path fill-rule="evenodd" clip-rule="evenodd" d="M40.1544 49.654C44.9239 46.6485 51.6266 45 59.5 45C71.2839 45 81 52.213 81 61.5C81 70.0364 80.4981 75.0943 79.9864 78.1644C79.906 78.6466 79.4888 79 79 79H74C73.4477 79 73 78.5523 73 78C73 77.4851 72.9352 76.8429 72.8479 75.9772C72.8188 75.6883 72.7871 75.3746 72.7545 75.0323C72.6699 74.144 72.5848 73.1089 72.5376 71.9106C72.3319 72.0212 72.1187 72.1264 71.8992 72.226C71.9649 72.4729 72 72.7323 72 73V74C72 75.6569 70.6569 77 69 77C67.3431 77 66 75.6569 66 74V73.5941C65.8045 73.6069 65.6084 73.617 65.412 73.6243C65.2466 73.6304 65.0803 73.6346 64.9134 73.6366C64.9423 73.6363 64.9712 73.6359 65 73.6354V74C65 75.6569 63.6569 77 62 77C60.3431 77 59 75.6569 59 74V73C59 72.9005 59.0048 72.8021 59.0143 72.7051C58.5489 72.5297 58.1007 72.3272 57.6756 72.0955L57.7042 72.3148C57.763 72.766 57.8254 73.2437 57.8705 73.7177C58.0021 75.0997 58.0105 76.6309 57.4487 78.3162C57.3126 78.7246 56.9304 79 56.5 79H52C51.4477 79 51 78.5523 51 78C51 76.1058 50.7668 75.0655 50.5299 74.1175L50.51 74.0383L50.4754 73.9011C50.4147 73.6608 50.3535 73.4184 50.2961 73.1647C49.1471 74.1267 47.6401 74.625 46.125 74.625C44.5744 74.625 42.9774 74.1102 41.6488 73.0306C41.7979 74.4585 42.0432 75.6583 42.3116 76.971C42.3671 77.2428 42.4237 77.5194 42.4806 77.8039C42.5393 78.0977 42.4633 78.4023 42.2733 78.634C42.0834 78.8657 41.7996 79 41.5 79H37C36.5911 79 36.2234 78.751 36.0715 78.3714C35.9404 78.0435 35.8111 77.7226 35.684 77.4072C33.8683 72.9013 32.5 69.5057 32.5 62.5C32.5 57.0944 35.358 52.6763 40.1544 49.654ZM60.8925 73.2533C60.9283 73.261 60.9641 73.2687 61 73.2762V74C61 74.5523 61.4477 75 62 75C62.5523 75 63 74.5523 63 74V73.5673C63 73.5673 63 73.5673 63 73.5673C62.2896 73.5058 61.582 73.4029 60.8925 73.2533ZM68 73.3631V74C68 74.5523 68.4477 75 69 75C69.5523 75 70 74.5523 70 74V73C70 72.9718 69.9988 72.9438 69.9965 72.9162C69.3612 73.0981 68.6911 73.2479 68 73.3631ZM41.2206 51.346C36.892 54.0737 34.5 57.9056 34.5 62.5C34.5 69.1162 35.7501 72.2192 37.5403 76.6627L37.6761 77H40.276C39.8658 74.9867 39.5 73.0242 39.5 70C39.5 69.5362 39.8189 69.1333 40.2702 69.0268C40.7216 68.9202 41.187 69.138 41.3944 69.5528C42.4675 71.699 44.3617 72.625 46.125 72.625C47.9212 72.625 49.4887 71.6821 50.0637 70.1489C50.2334 69.6962 50.7027 69.4298 51.1784 69.516C51.6541 69.6023 52 70.0165 52 70.5C52 71.7663 52.1893 72.5176 52.4173 73.4221L52.4701 73.6325C52.6884 74.5056 52.9094 75.4874 52.9782 77H55.7439C55.9886 75.9407 55.9771 74.9323 55.8795 73.9073C55.8378 73.469 55.7829 73.0486 55.7261 72.6136L55.726 72.6125C55.7001 72.4142 55.6738 72.2128 55.6482 72.0053C55.5687 71.3617 55.5 70.6878 55.5 70C55.5 69.5955 55.7436 69.2309 56.1173 69.0761C56.491 68.9213 56.9211 69.0069 57.2071 69.2929C58.9134 70.9992 62.0649 71.7469 65.338 71.6257C66.9438 71.5662 68.5095 71.2984 69.837 70.8753C71.1822 70.4466 72.201 69.8848 72.7929 69.2929C73.0789 69.0069 73.509 68.9213 73.8827 69.0761C74.2564 69.2309 74.5 69.5955 74.5 70C74.5 71.9568 74.6222 73.5477 74.7455 74.8427C74.7732 75.1338 74.8018 75.4158 74.8292 75.6874C74.8769 76.1585 74.9214 76.5982 74.953 77H78.1445C78.5158 74.4774 78.8663 70.7018 78.9695 65H72C65.3726 65 60 59.6274 60 53V47.0045C59.834 47.0015 59.6673 47 59.5 47C51.8734 47 45.576 48.6015 41.2206 51.346ZM79 61.5C79 62.0128 78.9982 62.5127 78.9946 63H72C66.4772 63 62 58.5228 62 53V47.1146C71.9255 48.0352 79 54.3722 79 61.5Z" fill="#C1622A"/>
<path fill-rule="evenodd" clip-rule="evenodd" d="M45.5 41.0005C41.9101 41.0005 39 43.9106 39 47.5005V60.0005C39 61.6573 40.3431 63.0005 42 63.0005H46C47.6569 63.0005 49 61.6573 49 60.0005V44.5005C49 42.5675 47.433 41.0005 45.5 41.0005Z" fill="#C1622A"/>
<path fill-rule="evenodd" clip-rule="evenodd" d="M29 50.0005C29 43.9254 33.9249 39.0005 40 39.0005H45.5C48.5376 39.0005 51 41.4629 51 44.5005V60.0005C51 62.7619 48.7614 65.0005 46 65.0005H34C31.2386 65.0005 29 62.7619 29 60.0005V50.0005ZM45.5 41.0005C41.9101 41.0005 39 43.9106 39 47.5005V60.0005C39 61.6573 40.3431 63.0005 42 63.0005H46C47.6569 63.0005 49 61.6573 49 60.0005V44.5005C49 42.5675 47.433 41.0005 45.5 41.0005Z" fill="#C1622A"/>
<path d="M77 58C77 58.5523 76.5523 59 76 59C75.4477 59 75 58.5523 75 58C75 57.4477 75.4477 57 76 57C76.5523 57 77 57.4477 77 58Z" fill="white"/>
<path d="M39 47.5005C39 43.9106 41.9101 41.0005 45.5 41.0005C47.433 41.0005 49 42.5675 49 44.5005V60.0005C49 61.6573 47.6569 63.0005 46 63.0005H42C40.3431 63.0005 39 61.6573 39 60.0005V47.5005Z" fill="#F1B82B"/>
<path d="M39 61.5005V63.0005H46C47.6569 63.0005 49 61.6573 49 60.0005V45.0005C49 43.5005 48.5 42.5005 48 42.5005C48 43.0005 48 42.4747 48 42.8338V59.5005C48 60.605 47.1046 61.5005 46 61.5005H39Z" fill="#F6D355"/>
<path fill-rule="evenodd" clip-rule="evenodd" d="M53.4208 43.7364C53.4664 44.2001 53.5 44.6336 53.5 45C53.5 46.9995 52 48.0004 50.5 48.0004C50.5 48.0004 50 49 48.5 49C47 49 45.5 47.9995 45.5 46C45.5 44.0004 47.067 43.0004 49 43.0004C50.0103 43.0004 50.7552 42.8984 51.3007 42.7025C52.9008 42.1279 52.7856 40.7462 52.6204 38.7653C52.5972 38.4874 52.5731 38.1977 52.5525 37.8967C52.5424 37.7476 52.5331 37.5957 52.5252 37.4411C52.5098 37.1376 52.5 36.8237 52.5 36.5C52.5 35.0005 53.9999 35.0001 54.5 35C54.4999 35 54.5 34.9999 54.5 35C54.2444 35.511 54.1522 36.0222 54.1397 36.5C54.1352 36.6708 54.141 36.8375 54.1531 36.9983C54.1536 37.0045 54.1541 37.0107 54.1546 37.0169C54.1803 37.3436 54.232 37.6459 54.2773 37.9111C54.39 38.571 54.4633 39.0004 54 39.0004C52.9124 39.0004 53.1391 41.1035 53.346 43.0221C53.3722 43.2647 53.398 43.5043 53.4208 43.7364ZM55.1735 40.7086C55.3559 40.6082 55.5368 40.4753 55.7057 40.3004C56.2329 39.7549 56.3316 39.1163 56.3543 38.7991C56.3778 38.4693 56.3399 38.1635 56.3144 37.9828C56.2948 37.8438 56.2666 37.6784 56.2435 37.5435C56.2359 37.4988 56.2288 37.4574 56.2228 37.4214C56.1044 36.7111 56.0971 36.2779 56.2888 35.8944C56.5988 35.2744 56.5657 34.5382 56.2013 33.9485C55.8369 33.3589 55.1932 33 54.5 33C54.4902 33 54.4785 32.9999 54.466 32.9999C54.2027 32.9989 53.3495 32.9958 52.5244 33.3495C52.0537 33.5513 51.5179 33.8976 51.1066 34.4819C50.6869 35.0784 50.5 35.7767 50.5 36.5C50.5 37.413 50.5718 38.2697 50.6293 38.9567C50.6412 39.0986 50.6525 39.2333 50.6624 39.3597C50.7261 40.1725 50.7234 40.5702 50.6761 40.8004C50.501 40.8746 50.0344 41.0004 49 41.0004C47.7159 41.0004 46.3636 41.3299 45.286 42.1805C44.1491 43.0779 43.5 44.418 43.5 46C43.5 47.5425 44.0985 48.8464 45.1087 49.7445C46.0821 50.6099 47.3236 51 48.5 51C49.7356 51 50.6699 50.5753 51.3115 50.0622C51.376 50.0107 51.4368 49.9588 51.494 49.9072C52.3494 49.7453 53.1901 49.3683 53.8915 48.7446C54.9016 47.8464 55.5 46.5425 55.5 45C55.5 44.3742 55.4238 43.6405 55.3558 43.0059C55.3489 42.9414 55.342 42.8774 55.3352 42.814C55.2698 42.2065 55.2101 41.6522 55.185 41.1505C55.1767 40.9854 55.173 40.8383 55.1735 40.7086Z" fill="#C1622A"/>
<path d="M65.5 52.5C65.5 52.2239 65.7239 52 66 52H72.5C72.7761 52 73 52.2239 73 52.5V52.8081C73 52.9317 72.9543 53.0508 72.8716 53.1426L68.5928 57.8969C68.533 57.9633 68.5 58.0494 68.5 58.1387V58.1387C68.5 58.3382 68.6618 58.5 68.8613 58.5H72.5C72.7761 58.5 73 58.7239 73 59V59C73 59.2761 72.7761 59.5 72.5 59.5H66C65.7239 59.5 65.5 59.2761 65.5 59V58.5L65.5 58.1919C65.5 58.0683 65.5457 57.9492 65.6284 57.8574L69.249 53.8345C69.5386 53.5127 69.3102 53 68.8773 53H66C65.7239 53 65.5 52.7761 65.5 52.5V52.5Z" fill="#C1622A"/>
<path d="M27 60.5005C27 58.5675 28.567 57.0005 30.5 57.0005H37.5C39.433 57.0005 41 58.5675 41 60.5005V60.5005C41 62.4335 39.433 64.0005 37.5 64.0005H30.5C28.567 64.0005 27 62.4335 27 60.5005V60.5005Z" fill="#F6D355"/>
<path fill-rule="evenodd" clip-rule="evenodd" d="M26 60.5005C26 58.0152 28.0147 56.0005 30.5 56.0005H37.5C39.9853 56.0005 42 58.0152 42 60.5005C42 62.9858 39.9853 65.0005 37.5 65.0005H30.5C28.0147 65.0005 26 62.9858 26 60.5005ZM30.5 58.0005C29.1193 58.0005 28 59.1198 28 60.5005C28 61.8812 29.1193 63.0005 30.5 63.0005H37.5C38.8807 63.0005 40 61.8812 40 60.5005C40 59.1198 38.8807 58.0005 37.5 58.0005H30.5Z" fill="#C1622A"/>
<path d="M32 60.0005C32 60.5528 31.5523 61.0005 31 61.0005C30.4477 61.0005 30 60.5528 30 60.0005C30 59.4482 30.4477 59.0005 31 59.0005C31.5523 59.0005 32 59.4482 32 60.0005Z" fill="#C1622A"/>
<path d="M36 60.0005C36 60.5528 35.5523 61.0005 35 61.0005C34.4477 61.0005 34 60.5528 34 60.0005C34 59.4482 34.4477 59.0005 35 59.0005C35.5523 59.0005 36 59.4482 36 60.0005Z" fill="#C1622A"/>
<path d="M35 52.7505C35 53.717 34.5523 54.5005 34 54.5005C33.4477 54.5005 33 53.717 33 52.7505C33 51.784 33.4477 51.0005 34 51.0005C34.5523 51.0005 35 51.784 35 52.7505Z" fill="white"/>
<path d="M35 47.0005C35 47.5528 34.5523 48.0005 34 48.0005C33.4477 48.0005 33 47.5528 33 47.0005C33 46.4482 33.4477 46.0005 34 46.0005C34.5523 46.0005 35 46.4482 35 47.0005Z" fill="white"/>
<path d="M36 45.5005C36 45.7766 35.7761 46.0005 35.5 46.0005C35.2239 46.0005 35 45.7766 35 45.5005C35 45.2243 35.2239 45.0005 35.5 45.0005C35.7761 45.0005 36 45.2243 36 45.5005Z" fill="white"/>
<path d="M42 52.7505C42 53.717 41.5523 54.5005 41 54.5005C40.4477 54.5005 40 53.717 40 52.7505C40 51.784 40.4477 51.0005 41 51.0005C41.5523 51.0005 42 51.784 42 52.7505Z" fill="white"/>
<path d="M49 43.0005C47.067 43.0005 45.5 44.0005 45.5 46C45.5 47.9995 47 49 48.5 49C50 49 50.5 48.0005 50.5 48.0005C52 48.0005 53.5 46.9995 53.5 45C53.5 43.0005 52.5 39.0005 54 39.0005C55 39.0005 53.5 36.9999 54.5 35H54.5C53.9999 35.0001 52.5 35.0005 52.5 36.5C52.5 40.5005 54 43.0005 49 43.0005Z" fill="#FC8D60"/>
<path d="M69.8139 15.7063C69.7353 15.563 69.9253 15.4249 70.0373 15.544L73.4812 19.2024C73.5247 19.2486 73.5939 19.2595 73.6495 19.229L78.0554 16.8139C78.1987 16.7353 78.3367 16.9253 78.2177 17.0373L74.5593 20.4813C74.5131 20.5247 74.5021 20.5939 74.5326 20.6495L76.9478 25.0554C77.0263 25.1987 76.8364 25.3368 76.7243 25.2178L73.2804 21.5593C73.2369 21.5131 73.1677 21.5022 73.1121 21.5327L68.7063 23.9478C68.5629 24.0264 68.4249 23.8364 68.5439 23.7244L72.2023 20.2805C72.2485 20.237 72.2595 20.1678 72.229 20.1122L69.8139 15.7063Z" fill="white"/>
</svg>
